<svg width="25" height="24" viewBox="0 0 25 24" fill="none" xmlns="http://www.w3.org/2000/svg">
<path d="M10.2 11.2998C9.8 10.8998 9.2 10.8998 8.8 11.2998C8.4 11.6998 8.4 12.2998 8.8 12.6998L11.8 15.6998C12 15.8998 12.2 15.9998 12.5 15.9998C12.8 15.9998 13 15.8998 13.2 15.6998L20.2 7.69978C20.5 7.19978 20.5 6.59978 20 6.29978C19.6 5.99978 19 5.99978 18.7 6.39978L12.5 13.4998L10.2 11.2998Z" fill="#02BC7D"/>
<path d="M21.5 11C20.9 11 20.5 11.4 20.5 12C20.5 16.4 16.9 20 12.5 20C8.1 20 4.5 16.4 4.5 12C4.5 9.9 5.3 7.9 6.8 6.4C8.3 4.8 10.3 4 12.5 4C13.1 4 13.8 4.1 14.4 4.2C14.9 4.4 15.5 4.1 15.7 3.5C15.9 2.9 15.5 2.5 15 2.3H14.9C14.1 2.1 13.3 2 12.5 2C7 2 2.5 6.5 2.5 12.1C2.5 14.7 3.6 17.3 5.4 19.1C7.3 21 9.8 22 12.4 22C17.9 22 22.4 17.5 22.4 12C22.5 11.4 22 11 21.5 11Z" fill="#02BC7D"/>
</svg>
