<svg width="24" height="24" viewBox="0 0 24 24" fill="none" xmlns="http://www.w3.org/2000/svg">
<g clip-path="url(#clip0_348_986)">
<path d="M17.0625 1.5C16.1133 1.5011 15.1744 1.69666 14.3037 2.0746C13.433 2.45255 12.649 3.00487 12 3.6975C11.0489 2.68242 9.8146 1.97669 8.45735 1.67195C7.1001 1.3672 5.68258 1.47751 4.38881 1.98854C3.09504 2.49958 1.98478 3.38775 1.20215 4.53775C0.419527 5.68775 0.000684862 7.04646 0 8.4375C0 15.345 11.1412 22.125 11.625 22.3913C11.7416 22.4613 11.8752 22.4984 12.0112 22.4984C12.1473 22.4984 12.2809 22.4613 12.3975 22.3913C12.8588 22.125 24 15.345 24 8.4375C23.998 6.59817 23.2665 4.83474 21.9659 3.53414C20.6653 2.23354 18.9018 1.50199 17.0625 1.5ZM12 20.865C10.0612 19.6275 1.5 13.845 1.5 8.4375C1.50096 7.28248 1.86969 6.15777 2.55276 5.22637C3.23582 4.29498 4.19772 3.60528 5.29906 3.25725C6.4004 2.90922 7.58395 2.92093 8.67819 3.29068C9.77243 3.66043 10.7205 4.36902 11.385 5.31375C11.4542 5.41202 11.5461 5.49221 11.6528 5.54756C11.7595 5.60291 11.8779 5.6318 11.9981 5.6318C12.1183 5.6318 12.2368 5.60291 12.3435 5.54756C12.4502 5.49221 12.542 5.41202 12.6112 5.31375C13.2752 4.3674 14.2235 3.65728 15.3184 3.28648C16.4134 2.91569 17.598 2.90352 18.7004 3.25174C19.8027 3.59996 20.7654 4.29044 21.4486 5.22295C22.1319 6.15546 22.5002 7.28147 22.5 8.4375C22.5 13.8412 13.9388 19.6238 12 20.865Z" fill="#E8505B"/>
</g>
<defs>
<clipPath id="clip0_348_986">
<rect width="24" height="24" fill="white"/>
</clipPath>
</defs>
</svg>
