<svg width="18" height="18" viewBox="0 0 18 18" fill="none" xmlns="http://www.w3.org/2000/svg">
<path fill-rule="evenodd" clip-rule="evenodd" d="M11.8125 3.38184C10.4586 3.38184 9.3195 4.35271 9.05737 5.63184H1.6875C1.53832 5.63184 1.39524 5.6911 1.28975 5.79659C1.18426 5.90208 1.125 6.04515 1.125 6.19434C1.125 6.34352 1.18426 6.48659 1.28975 6.59208C1.39524 6.69757 1.53832 6.75684 1.6875 6.75684H9.05737C9.3195 8.03652 10.458 9.00684 11.8125 9.00684C13.167 9.00684 14.3055 8.03652 14.5676 6.75684H16.3125C16.4617 6.75684 16.6048 6.69757 16.7102 6.59208C16.8157 6.48659 16.875 6.34352 16.875 6.19434C16.875 6.04515 16.8157 5.90208 16.7102 5.79659C16.6048 5.6911 16.4617 5.63184 16.3125 5.63184H14.5676C14.3055 4.35271 13.167 3.38184 11.8125 3.38184ZM11.8125 4.50684C12.7513 4.50684 13.5 5.25552 13.5 6.19434C13.5 7.13315 12.7513 7.88184 11.8125 7.88184C10.8737 7.88184 10.125 7.13315 10.125 6.19434C10.125 5.25552 10.8737 4.50684 11.8125 4.50684ZM6.1875 9.00684C4.83356 9.00684 3.6945 9.97771 3.43238 11.2568H1.6875C1.53832 11.2568 1.39524 11.3161 1.28975 11.4216C1.18426 11.5271 1.125 11.6702 1.125 11.8193C1.125 11.9685 1.18426 12.1116 1.28975 12.2171C1.39524 12.3226 1.53832 12.3818 1.6875 12.3818H3.43238C3.6945 13.6615 4.833 14.6318 6.1875 14.6318C7.542 14.6318 8.6805 13.6615 8.94263 12.3818H16.3125C16.4617 12.3818 16.6048 12.3226 16.7102 12.2171C16.8157 12.1116 16.875 11.9685 16.875 11.8193C16.875 11.6702 16.8157 11.5271 16.7102 11.4216C16.6048 11.3161 16.4617 11.2568 16.3125 11.2568H8.94263C8.6805 9.97771 7.542 9.00684 6.1875 9.00684ZM6.1875 10.1318C7.12631 10.1318 7.875 10.8805 7.875 11.8193C7.875 12.7581 7.12631 13.5068 6.1875 13.5068C5.24869 13.5068 4.5 12.7581 4.5 11.8193C4.5 10.8805 5.24869 10.1318 6.1875 10.1318Z" fill="black"/>
</svg>
