<svg width="24" height="24" viewBox="0 0 24 24" fill="none" xmlns="http://www.w3.org/2000/svg">
<g clip-path="url(#clip0_348_600)">
<path d="M10.2187 22.0858H5.37797C4.62448 22.0835 3.90236 21.7839 3.36859 21.252C2.83483 20.7202 2.53256 19.9992 2.5275 19.2457V9.62038C2.529 9.36107 2.58722 9.10522 2.69808 8.8708C2.80893 8.63637 2.96974 8.42904 3.16922 8.26335L4.0214 7.63241C4.17201 7.47169 4.26187 7.2635 4.27553 7.04367C4.28918 6.82384 4.22578 6.60613 4.09623 6.42801C3.96667 6.24989 3.77908 6.1225 3.56573 6.06778C3.35238 6.01305 3.12664 6.03442 2.92734 6.12819L2.05406 6.78022C1.61928 7.11659 1.26586 7.54659 1.02005 8.03828C0.774247 8.52998 0.64237 9.07073 0.634216 9.62038V19.256C0.636817 20.5134 1.13742 21.7185 2.02647 22.6076C2.91552 23.4968 4.1206 23.9975 5.37797 24.0002H10.2187C10.3448 24.003 10.4702 23.9806 10.5875 23.9343C10.7048 23.888 10.8117 23.8187 10.9019 23.7305C10.992 23.6423 11.0637 23.537 11.1126 23.4208C11.1615 23.3045 11.1867 23.1797 11.1867 23.0536C11.1867 22.9275 11.1615 22.8026 11.1126 22.6864C11.0637 22.5701 10.992 22.4648 10.9019 22.3766C10.8117 22.2885 10.7048 22.2192 10.5875 22.1729C10.4702 22.1265 10.3448 22.1041 10.2187 22.1069V22.0858Z" fill="#E8505B"/>
<path d="M23.3658 9.59914C23.3604 9.05333 23.234 8.51551 22.9958 8.0244C22.7576 7.53329 22.4135 7.10111 21.9881 6.75899L14.7188 0.962893C13.9435 0.339712 12.9786 0 11.9839 0C10.9891 0 10.0242 0.339712 9.24893 0.962893L6.94549 2.63539C6.73763 2.78458 6.59754 3.01023 6.55605 3.2627C6.51456 3.51517 6.57506 3.77378 6.72424 3.98164C6.87342 4.18951 7.09907 4.32959 7.35154 4.37109C7.60401 4.41258 7.86263 4.35208 8.07049 4.20289L10.4063 2.4568C10.8508 2.09127 11.4085 1.89144 11.9841 1.89144C12.5596 1.89144 13.1173 2.09127 13.5619 2.4568L20.8308 8.25289C21.0375 8.41655 21.2051 8.62417 21.3215 8.86067C21.438 9.09718 21.5003 9.35665 21.5039 9.62024V19.2559C21.5039 19.6288 21.4305 19.9982 21.2877 20.3427C21.145 20.6873 20.9358 21.0004 20.6721 21.2642C20.4083 21.5279 20.0952 21.7371 19.7507 21.8798C19.4061 22.0226 19.0367 22.096 18.6638 22.096H16.5075C16.4015 22.096 16.2998 22.0539 16.2248 21.9789C16.1498 21.9039 16.1077 21.8022 16.1077 21.6962V17.3518C16.1077 16.6869 15.8442 16.049 15.375 15.5778C14.9058 15.1067 14.269 14.8406 13.6041 14.8379H10.4485C10.1183 14.8378 9.79139 14.9028 9.48636 15.0291C9.18133 15.1554 8.90417 15.3406 8.67072 15.5741C8.43727 15.8075 8.2521 16.0847 8.12579 16.3897C7.99947 16.6947 7.93449 17.0217 7.93455 17.3518V19.014C7.93175 19.1401 7.95416 19.2655 8.00047 19.3828C8.04678 19.5001 8.11606 19.6069 8.20424 19.6971C8.29243 19.7873 8.39773 19.8589 8.51398 19.9078C8.63023 19.9567 8.75508 19.9819 8.88119 19.9819C9.00731 19.9819 9.13216 19.9567 9.24841 19.9078C9.36466 19.8589 9.46996 19.7873 9.55814 19.6971C9.64632 19.6069 9.7156 19.5001 9.76192 19.3828C9.80823 19.2655 9.83064 19.1401 9.82783 19.014V17.3518C9.82634 17.2708 9.841 17.1904 9.87095 17.1151C9.9009 17.0399 9.94555 16.9714 10.0023 16.9136C10.059 16.8558 10.1267 16.8099 10.2014 16.7786C10.2761 16.7473 10.3562 16.7312 10.4372 16.7312H13.5938C13.7554 16.7312 13.9104 16.7954 14.0247 16.9097C14.1389 17.0239 14.2031 17.1789 14.2031 17.3405V21.6952C14.2059 22.3045 14.4498 22.8878 14.8816 23.3177C15.3134 23.7475 15.8978 23.9888 16.5071 23.9888H18.6094C19.2325 23.9891 19.8495 23.8666 20.4253 23.6283C21.001 23.3901 21.5242 23.0407 21.9649 22.6003C22.4057 22.1598 22.7553 21.6368 22.9939 21.0612C23.2325 20.4856 23.3554 19.8686 23.3555 19.2455L23.3658 9.59914Z" fill="#E8505B"/>
</g>
<defs>
<clipPath id="clip0_348_600">
<rect width="24" height="24" fill="white"/>
</clipPath>
</defs>
</svg>
