<svg width="20" height="22" viewBox="0 0 20 22" fill="none" xmlns="http://www.w3.org/2000/svg">
<path d="M13.4267 14.2987C15.6106 10.8718 15.336 11.2993 15.399 11.2099C16.1941 10.0885 16.6143 8.76853 16.6143 7.39276C16.6143 3.74429 13.6537 0.73877 10.0004 0.73877C6.35907 0.73877 3.3865 3.73836 3.3865 7.39276C3.3865 8.76765 3.81557 10.1221 4.63673 11.2587L6.57409 14.2987C4.50273 14.617 0.981445 15.5656 0.981445 17.6543C0.981445 18.4157 1.47841 19.5008 3.84595 20.3464C5.49911 20.9368 7.68478 21.2619 10.0004 21.2619C14.3305 21.2619 19.0194 20.0405 19.0194 17.6543C19.0194 15.5653 15.5022 14.6177 13.4267 14.2987ZM5.6412 10.5973C5.6346 10.587 5.62769 10.5768 5.62048 10.5669C4.93716 9.62686 4.58903 8.51276 4.58903 7.39276C4.58903 4.38572 7.01036 1.9413 10.0004 1.9413C12.9842 1.9413 15.4118 4.3868 15.4118 7.39276C15.4118 8.51456 15.0702 9.59086 14.4239 10.5061C14.366 10.5826 14.6681 10.1131 10.0004 17.4374L5.6412 10.5973ZM10.0004 20.0594C5.2707 20.0594 2.18397 18.6692 2.18397 17.6543C2.18397 16.9723 3.77003 15.8507 7.28462 15.4136L9.49335 18.8794C9.54766 18.9646 9.62259 19.0348 9.71121 19.0834C9.79984 19.1321 9.89929 19.1576 10.0004 19.1576C10.1015 19.1576 10.2009 19.1321 10.2895 19.0834C10.3781 19.0348 10.4531 18.9646 10.5074 18.8794L12.7161 15.4136C16.2308 15.8507 17.8168 16.9723 17.8168 17.6543C17.8168 18.6605 14.7579 20.0594 10.0004 20.0594Z" fill="#E8505B"/>
<path d="M10.0005 4.38623C8.34278 4.38623 6.99414 5.73487 6.99414 7.39255C6.99414 9.05024 8.34278 10.3989 10.0005 10.3989C11.6581 10.3989 13.0068 9.05024 13.0068 7.39255C13.0068 5.73487 11.6581 4.38623 10.0005 4.38623ZM10.0005 9.19635C9.00585 9.19635 8.19667 8.38716 8.19667 7.39255C8.19667 6.39794 9.00585 5.58876 10.0005 5.58876C10.9951 5.58876 11.8043 6.39794 11.8043 7.39255C11.8043 8.38716 10.9951 9.19635 10.0005 9.19635Z" fill="#E8505B"/>
</svg>
