<svg width="245" height="216" viewBox="0 0 245 216" fill="none" xmlns="http://www.w3.org/2000/svg">
<g clip-path="url(#clip0_39_571)">
<path d="M122.5 201.982C174.756 201.982 217.118 199.509 217.118 196.458C217.118 193.407 174.756 190.934 122.5 190.934C70.2437 190.934 27.8816 193.407 27.8816 196.458C27.8816 199.509 70.2437 201.982 122.5 201.982Z" fill="#F5F5F5"/>
<path d="M116.837 152.667H22.6087C21.0715 152.664 19.8271 151.417 19.8271 149.88V17.4222C19.8403 15.8948 21.0813 14.6626 22.6087 14.6602H116.837C118.375 14.6602 119.623 15.9075 119.623 17.4466V149.88C119.623 151.419 118.375 152.667 116.837 152.667ZM22.6087 14.7578C21.1389 14.7607 19.9491 15.9524 19.9491 17.4222V149.88C19.9491 151.35 21.1389 152.542 22.6087 152.545H116.837C118.307 152.542 119.498 151.35 119.501 149.88V17.4222C119.498 15.9519 118.307 14.7602 116.837 14.7578H22.6087Z" fill="#E6E6E6"/>
<path d="M222.396 152.667H128.163C126.626 152.664 125.379 151.418 125.377 149.88V17.4222C125.393 15.8938 126.635 14.6626 128.163 14.6602H222.396C223.921 14.6655 225.16 15.8967 225.173 17.4222V149.88C225.173 151.415 223.931 152.661 222.396 152.667ZM128.163 14.7578C126.693 14.7607 125.501 15.9519 125.499 17.4222V149.88C125.501 151.35 126.693 152.542 128.163 152.545H222.396C223.866 152.542 225.058 151.35 225.06 149.88V17.4222C225.058 15.9519 223.866 14.7602 222.396 14.7578H128.163Z" fill="#E6E6E6"/>
<path d="M42.4386 177.398H22.3281V177.52H42.4386V177.398Z" fill="#E0E0E0"/>
<path d="M83.4305 176.422H63.2615V176.544H83.4305V176.422Z" fill="#E0E0E0"/>
<path d="M109.675 176.422H104.795V176.544H109.675V176.422Z" fill="#E0E0E0"/>
<path d="M60.8996 180.59H38.3296V180.712H60.8996V180.59Z" fill="#E0E0E0"/>
<path d="M138.965 177.335H128.424V177.457H138.965V177.335Z" fill="#E0E0E0"/>
<path d="M156.938 177.335H143.308V177.457H156.938V177.335Z" fill="#E0E0E0"/>
<path d="M222.672 179.399H192.201V179.521H222.672V179.399Z" fill="#E0E0E0"/>
<path d="M244.5 172.61H0.5V172.732H244.5V172.61Z" fill="#EBEBEB"/>
<path opacity="0.8" d="M163.9 24.7863L162.683 41.512C162.642 42.0947 162.391 42.6237 162.004 43.0199C161.557 43.4952 160.925 43.7924 160.243 43.7924H146.827C146.331 43.7924 145.884 43.6353 145.531 43.3625C144.981 42.9535 144.652 42.2757 144.706 41.5115L145.922 24.7858C146.01 23.5258 147.102 22.5049 148.362 22.5049H161.777C163.038 22.5059 163.987 23.5263 163.9 24.7863Z" fill="#E0E0E0"/>
<path d="M158.081 32.3588C157.908 34.8261 156.124 36.8259 154.097 36.8259C152.069 36.8259 150.565 34.8261 150.737 32.3588C150.91 29.8914 152.694 27.8916 154.721 27.8916C156.749 27.8916 158.253 29.8919 158.081 32.3588Z" fill="white"/>
<path d="M159.772 42.6403H147.494C146.716 42.6403 146.177 42.267 146.157 41.7429C146.129 40.984 150.111 37.6905 153.888 37.976C153.901 37.977 153.915 37.976 153.929 37.976C153.944 37.976 153.96 37.976 153.974 37.976C156.288 37.9857 158.467 38.9642 160.298 40.4116C162.12 41.8517 160.396 42.6403 159.772 42.6403Z" fill="white"/>
<path d="M94.6944 43.1839C92.0827 43.2166 89.7827 41.1162 89.567 38.5025C89.3518 35.8883 91.3014 33.7352 93.9131 33.7025C96.5254 33.6698 98.8254 35.7702 99.0406 38.3844C99.2563 40.9981 97.3067 43.1512 94.6944 43.1839ZM94.121 36.2216C92.8971 36.2367 91.9836 37.2459 92.0846 38.4708C92.1856 39.6957 93.2631 40.6795 94.487 40.6643C95.7109 40.6492 96.6245 39.64 96.5239 38.4151C96.4229 37.1903 95.3449 36.2065 94.121 36.2216Z" fill="#E0E0E0"/>
<path d="M94.9291 35.8556L93.1313 35.8781L92.1777 24.3042L93.9755 24.2817L94.9291 35.8556Z" fill="#E0E0E0"/>
<path d="M95.6791 24.8012L92.3036 24.8437L92.1553 23.0439L95.5308 23.002L95.6791 24.8012Z" fill="#E0E0E0"/>
<path d="M95.8724 27.1137L92.6984 27.1532L92.55 25.3535L95.724 25.314L95.8724 27.1137Z" fill="#E0E0E0"/>
<path d="M96.146 30.3754L93.3756 30.4101L93.2273 28.6103L95.9982 28.5757L96.146 30.3754Z" fill="#E0E0E0"/>
<path d="M39.2029 141.559C39.2132 141.706 39.2332 141.852 39.2576 141.994C39.421 142.935 39.91 143.784 40.5888 144.419C41.3721 145.151 42.414 145.605 43.5315 145.605H84.7626C86.8512 145.605 88.4582 144.024 88.5314 141.994C88.5363 141.852 88.5358 141.706 88.5256 141.559C88.4475 140.447 87.9229 139.432 87.1401 138.704C86.3569 137.972 85.315 137.519 84.1975 137.519H42.9659C40.7308 137.519 39.0468 139.329 39.2029 141.559Z" fill="#F0F0F0"/>
<path d="M88.5294 141.993C88.5269 142.125 88.5152 142.257 88.4932 142.383C88.3849 141.329 87.8696 140.373 87.1205 139.68C86.3377 138.948 85.2968 138.494 84.1793 138.494L40.3315 138.562C41.0016 137.913 41.9258 137.518 42.9653 137.518H84.1964C85.3139 137.518 86.3553 137.972 87.1376 138.704C87.9203 139.431 88.4488 140.446 88.5269 141.559C88.5342 141.705 88.5367 141.852 88.5294 141.993Z" fill="#E0E0E0"/>
<path d="M81.474 139.468L81.6121 141.441L83.4607 140.756L83.8799 141.73L81.9923 142.352L83.3109 144.007L82.4588 144.63L81.1754 142.911L80.1501 144.63L79.2375 144.007L80.3072 142.352L78.3499 141.73L78.6319 140.762L80.5932 141.422L80.4566 139.468H81.474Z" fill="white"/>
<path d="M70.1979 139.468L70.336 141.441L72.1846 140.756L72.6037 141.73L70.7162 142.352L72.0347 144.007L71.1827 144.63L69.8992 142.911L68.874 144.63L67.9614 144.007L69.0311 142.352L67.0737 141.73L67.3558 140.762L69.3171 141.422L69.1804 139.468H70.1979Z" fill="white"/>
<path d="M58.9215 139.468L59.0596 141.441L60.9082 140.756L61.3274 141.73L59.4398 142.352L60.7584 144.007L59.9063 144.63L58.6229 142.911L57.5976 144.63L56.685 144.007L57.7547 142.352L55.7974 141.73L56.0794 140.762L58.0407 141.422L57.9041 139.468H58.9215Z" fill="white"/>
<path d="M47.6454 139.468L47.7835 141.441L49.6321 140.756L50.0513 141.73L48.1637 142.352L49.4822 144.007L48.6302 144.63L47.3468 142.911L46.3215 144.63L45.4089 144.007L46.4786 142.352L44.5212 141.73L44.8033 140.762L46.7646 141.422L46.6279 139.468H47.6454Z" fill="white"/>
<path d="M75.0348 136.094H73.113L73.1218 135.606H75.0431L75.0348 136.094Z" fill="#E0E0E0"/>
<path d="M83.3006 136.094H77.0283L77.0366 135.606H83.3094L83.3006 136.094Z" fill="#E0E0E0"/>
<g opacity="0.8">
<path d="M131.96 133.633L139.736 145.605L165.384 119.956C165.61 119.731 165.299 119.38 165.048 119.577L140.605 138.735L135.989 131.293L131.96 133.633Z" fill="#E0E0E0"/>
</g>
<path opacity="0.1" d="M127.31 48.4419L108.893 117.324H115.088L133.302 48.4419H127.31Z" fill="white"/>
<path opacity="0.1" d="M136.871 48.4419L118.454 117.324H130.743L148.956 48.4419H136.871Z" fill="white"/>
<path d="M203.171 110.594L207.056 55.3018C207.185 53.4752 205.801 51.9951 203.965 51.9971L107.471 52.081C105.635 52.0825 104.042 53.565 103.914 55.3916L100.029 110.684C99.9007 112.511 101.285 113.991 103.12 113.989L199.615 113.905C201.451 113.903 203.043 112.421 203.171 110.594Z" fill="#263238"/>
<path d="M201.933 109.388L205.818 54.0957C205.946 52.2692 204.563 50.7891 202.727 50.791L106.232 50.875C104.397 50.8764 102.804 52.359 102.676 54.1855L98.791 109.478C98.6626 111.305 100.047 112.785 101.882 112.783L198.377 112.699C200.212 112.697 201.805 111.215 201.933 109.388Z" fill="#E8505B"/>
<path opacity="0.6" d="M199.375 110.204C199.237 110.332 198.999 110.486 198.646 110.486L102.152 110.57C101.503 110.57 100.974 110.005 101.019 109.361L104.904 54.0692C104.928 53.7217 105.097 53.4968 105.234 53.3684C105.373 53.2401 105.611 53.0869 105.963 53.0859L202.458 53.0024C203.107 53.002 203.636 53.5666 203.591 54.2112L199.706 109.503C199.68 109.851 199.512 110.076 199.375 110.204Z" fill="white"/>
<path d="M167.278 79.8081H133.408C132.804 79.8081 132.262 80.2961 132.199 80.8978L131.681 85.8505C131.618 86.4522 132.057 86.9402 132.662 86.9402H166.532C167.136 86.9402 167.678 86.4522 167.741 85.8505L168.259 80.8978C168.322 80.2961 167.883 79.8081 167.278 79.8081Z" fill="white"/>
<path d="M137.437 100.039H132.151C131.547 100.039 131.005 100.527 130.942 101.128L130.424 106.081C130.361 106.683 130.8 107.171 131.405 107.171H136.69C137.295 107.171 137.836 106.683 137.899 106.081L138.418 101.128C138.481 100.527 138.042 100.039 137.437 100.039Z" fill="white"/>
<path d="M146.563 100.039H141.277C140.673 100.039 140.131 100.527 140.068 101.128L139.55 106.081C139.487 106.683 139.926 107.171 140.531 107.171H145.816C146.421 107.171 146.962 106.683 147.025 106.081L147.544 101.128C147.607 100.527 147.168 100.039 146.563 100.039Z" fill="white"/>
<path d="M155.689 100.039H150.403C149.799 100.039 149.257 100.527 149.194 101.128L148.676 106.081C148.613 106.683 149.052 107.171 149.657 107.171H154.942C155.547 107.171 156.089 106.683 156.152 106.081L156.67 101.128C156.733 100.527 156.294 100.039 155.689 100.039Z" fill="white"/>
<path d="M164.815 100.039H159.529C158.925 100.039 158.383 100.527 158.32 101.128L157.802 106.081C157.739 106.683 158.178 107.171 158.783 107.171H164.068C164.673 107.171 165.215 106.683 165.278 106.081L165.796 101.128C165.859 100.527 165.42 100.039 164.815 100.039Z" fill="white"/>
<path d="M137.657 96.6644H158.844C159.874 96.6644 160.796 95.8334 160.903 94.8086L161.158 92.3769C161.265 91.3516 160.517 90.521 159.487 90.521H138.3C137.27 90.521 136.348 91.3521 136.241 92.3769L135.986 94.8086C135.879 95.8334 136.627 96.6644 137.657 96.6644Z" stroke="#E8505B" stroke-miterlimit="10" stroke-linecap="round" stroke-linejoin="round"/>
<path d="M168.499 69.4941H134.629C134.024 69.4941 133.482 69.9821 133.42 70.5838L132.901 75.5366C132.838 76.1383 133.278 76.6263 133.882 76.6263H167.752C168.357 76.6263 168.899 76.1383 168.962 75.5366L169.48 70.5838C169.543 69.9821 169.104 69.4941 168.499 69.4941Z" fill="white"/>
<path d="M137.527 83.3743C137.597 82.7082 137.11 82.168 136.441 82.168C135.772 82.168 135.172 82.7082 135.103 83.3743C135.033 84.0404 135.519 84.5806 136.189 84.5806C136.858 84.5806 137.457 84.0404 137.527 83.3743Z" fill="#E8505B"/>
<path d="M141.252 83.3743C141.322 82.7082 140.836 82.168 140.166 82.168C139.496 82.168 138.897 82.7082 138.827 83.3743C138.758 84.0404 139.244 84.5806 139.913 84.5806C140.583 84.5806 141.183 84.0404 141.252 83.3743Z" fill="#E8505B"/>
<path d="M144.977 83.3743C145.047 82.7082 144.561 82.168 143.891 82.168C143.222 82.168 142.622 82.7082 142.553 83.3743C142.483 84.0404 142.969 84.5806 143.639 84.5806C144.308 84.5806 144.908 84.0404 144.977 83.3743Z" fill="#E8505B"/>
<path d="M148.703 83.3743C148.773 82.7082 148.286 82.168 147.617 82.168C146.947 82.168 146.348 82.7082 146.278 83.3743C146.209 84.0404 146.695 84.5806 147.365 84.5806C148.034 84.5806 148.633 84.0404 148.703 83.3743Z" fill="#E8505B"/>
<path d="M152.501 83.3743C152.571 82.7082 152.084 82.168 151.415 82.168C150.746 82.168 150.146 82.7082 150.076 83.3743C150.007 84.0404 150.493 84.5806 151.163 84.5806C151.832 84.5806 152.431 84.0404 152.501 83.3743Z" fill="#E8505B"/>
<path d="M138.747 73.0603C138.817 72.3942 138.331 71.854 137.661 71.854C136.992 71.854 136.392 72.3942 136.323 73.0603C136.253 73.7265 136.739 74.2667 137.408 74.2667C138.078 74.2672 138.678 73.7269 138.747 73.0603Z" fill="#E8505B"/>
<path d="M142.473 73.0603C142.543 72.3942 142.057 71.854 141.387 71.854C140.717 71.854 140.118 72.3942 140.048 73.0603C139.978 73.7265 140.464 74.2667 141.134 74.2667C141.804 74.2672 142.403 73.7269 142.473 73.0603Z" fill="#E8505B"/>
<path d="M146.198 73.0603C146.268 72.3942 145.781 71.854 145.112 71.854C144.443 71.854 143.843 72.3942 143.774 73.0603C143.704 73.7265 144.19 74.2667 144.859 74.2667C145.529 74.2672 146.128 73.7269 146.198 73.0603Z" fill="#E8505B"/>
<path d="M149.923 73.0603C149.993 72.3942 149.506 71.854 148.837 71.854C148.168 71.854 147.569 72.3942 147.499 73.0603C147.429 73.7265 147.916 74.2667 148.585 74.2667C149.255 74.2667 149.853 73.7269 149.923 73.0603Z" fill="#E8505B"/>
<path d="M153.648 73.0603C153.718 72.3942 153.231 71.854 152.562 71.854C151.893 71.854 151.293 72.3942 151.224 73.0603C151.154 73.7265 151.64 74.2667 152.31 74.2667C152.979 74.2672 153.578 73.7269 153.648 73.0603Z" fill="#E8505B"/>
<path d="M157.373 73.0603C157.443 72.3942 156.957 71.854 156.288 71.854C155.618 71.854 155.019 72.3942 154.949 73.0603C154.879 73.7265 155.365 74.2667 156.035 74.2667C156.704 74.2672 157.304 73.7269 157.373 73.0603Z" fill="#E8505B"/>
<path d="M154.209 58.5714L153.945 61.0729C153.921 61.2984 153.718 61.4809 153.492 61.4809C153.265 61.4809 153.101 61.2979 153.125 61.0729L153.389 58.5714C153.474 57.7638 152.883 57.106 152.071 57.106H151.172C150.36 57.106 149.63 57.7638 149.545 58.5714L149.316 60.8948H148.496L148.725 58.5714C148.858 57.3134 149.994 56.2896 151.258 56.2896H152.158C153.421 56.2896 154.342 57.3129 154.209 58.5714Z" fill="#E8505B"/>
<path d="M154.226 60.9811L153.711 65.8548C153.679 66.1632 153.402 66.4126 153.092 66.4126H148.195C147.886 66.4126 147.661 66.1632 147.693 65.8548L148.208 60.9811C148.229 60.782 148.353 60.6068 148.521 60.5087C148.612 60.4546 148.718 60.4233 148.827 60.4233H153.724C153.83 60.4233 153.926 60.4526 154.005 60.5034C154.157 60.601 154.247 60.7781 154.226 60.9811Z" fill="#E8505B"/>
<path d="M192.435 50.4688L180.51 50.5395" stroke="#263238" stroke-miterlimit="10" stroke-linecap="round" stroke-linejoin="round"/>
<path d="M198.935 50.4365L194.72 50.4551" stroke="#263238" stroke-miterlimit="10" stroke-linecap="round" stroke-linejoin="round"/>
<g opacity="0.3">
<path d="M115.228 53.0718H128.881L115.001 110.57H104.014C104.004 110.57 103.994 110.57 103.984 110.57C102.624 110.563 101.665 109.262 101.984 107.942L115.228 53.0718Z" fill="white"/>
<path d="M134.942 53.0718H140.738L126.859 110.57H121.063L134.942 53.0718Z" fill="white"/>
</g>
<path d="M42.7871 35.1235H45.557C42.7691 35.1235 40.6668 37.3835 40.862 40.1719L46.7414 124.253C46.9361 127.041 49.3546 129.302 52.1426 129.302H49.3727C46.5848 129.302 44.1667 127.042 43.9715 124.253L38.0916 40.1714C37.8969 37.3835 39.9987 35.1235 42.7871 35.1235Z" fill="#E8505B"/>
<path d="M42.7871 35.1235H45.557C42.769 35.1235 40.6667 37.3835 40.8619 40.1719L46.7413 124.253C46.936 127.041 49.3546 129.302 52.1425 129.302H49.3726C46.5847 129.302 43.7762 127.042 43.581 124.253L37.7011 40.1714C37.5064 37.3835 39.9986 35.1235 42.7871 35.1235Z" fill="#263238"/>
<path d="M50.1982 129.301H84.1127C86.9007 129.301 89.003 127.041 88.8078 124.253L82.9284 40.1714C82.7332 37.3835 80.3151 35.123 77.5272 35.123H43.6126C40.8247 35.123 38.7224 37.383 38.9176 40.1714L44.797 124.253C44.9922 127.041 47.4103 129.301 50.1982 129.301Z" fill="#E8505B"/>
<g opacity="0.6">
<path d="M77.4362 36.7432C79.3721 36.7432 81.0576 38.3194 81.1928 40.2563L87.0722 124.337C87.1352 125.239 86.8477 126.081 86.2626 126.709C85.6795 127.336 84.863 127.681 83.9651 127.681H50.0506C48.1147 127.681 46.4296 126.105 46.2939 124.167L40.414 40.0869C40.3511 39.1856 40.6385 38.3428 41.2236 37.7148C41.8068 37.0887 42.6232 36.7437 43.5211 36.7437L77.4362 36.7432Z" fill="white"/>
</g>
<g opacity="0.3">
<path d="M67.8599 127.681H54.3335L65.4887 36.7432H76.375C77.3671 36.7432 78.2553 37.1589 78.8828 37.8231L67.8599 127.681Z" fill="white"/>
<path d="M51.9057 127.681H48.8625L60.0177 36.7432H63.0604L51.9057 127.681Z" fill="white"/>
</g>
<path d="M50.8499 76.4771H75.4163" stroke="white" stroke-miterlimit="10" stroke-linecap="round" stroke-linejoin="round"/>
<path d="M54.019 80.1099H73.2619" stroke="white" stroke-miterlimit="10" stroke-linecap="round" stroke-linejoin="round"/>
<path d="M51.5827 59.726L51.6164 60.6913H50.9869L50.9532 59.7182L49.8386 57.9668H50.5072L51.2763 59.177L51.9605 57.9668H52.5787L51.5827 59.726Z" fill="#E8505B"/>
<path d="M52.6045 59.3293C52.5757 58.5197 53.1842 57.9204 54.0436 57.9204C54.8986 57.9204 55.5535 58.5163 55.5818 59.3293C55.6106 60.1428 54.9976 60.7381 54.1427 60.7381C53.2838 60.7381 52.6333 60.1384 52.6045 59.3293ZM54.9445 59.3293C54.9264 58.8115 54.5482 58.4577 54.0626 58.4577C53.5766 58.4577 53.2238 58.812 53.2418 59.3293C53.2599 59.847 53.6376 60.2013 54.1236 60.2013C54.6097 60.2008 54.9625 59.8465 54.9445 59.3293Z" fill="#E8505B"/>
<path d="M56.041 59.4928L55.9878 57.9673H56.6173L56.6695 59.4698C56.6876 59.9876 56.9208 60.2014 57.302 60.2014C57.6865 60.2014 57.9008 59.9871 57.8827 59.4698L57.8305 57.9673H58.4522L58.5054 59.4928C58.5337 60.2946 58.0906 60.7381 57.3171 60.7381C56.5436 60.7381 56.0693 60.2946 56.041 59.4928Z" fill="#E8505B"/>
<path d="M60.9054 60.6913L60.354 59.9325H60.3228H59.7747L59.8016 60.6913H59.1721L59.0769 57.9668H60.2544C60.9816 57.9668 61.4491 58.3445 61.4705 58.9555C61.4852 59.3639 61.29 59.6641 60.9411 59.8158L61.5823 60.6913H60.9054ZM60.2374 58.4807H59.7235L59.7567 59.4303H60.2701C60.6546 59.4303 60.843 59.2512 60.8322 58.9555C60.822 58.6558 60.6214 58.4807 60.2374 58.4807Z" fill="#E8505B"/>
<path d="M62.9126 59.3293C62.8838 58.508 63.4928 57.9204 64.34 57.9204C64.8104 57.9204 65.2091 58.0917 65.4766 58.403L65.0852 58.7768C64.8953 58.5665 64.6626 58.4577 64.3903 58.4577C63.8808 58.4577 63.5319 58.8154 63.5499 59.3293C63.568 59.8431 63.9418 60.2013 64.4513 60.2013C64.7236 60.2013 64.949 60.092 65.1237 59.8783L65.541 60.2521C65.2955 60.5673 64.909 60.7386 64.4347 60.7386C63.5919 60.7381 62.9414 60.1501 62.9126 59.3293Z" fill="#E8505B"/>
<path d="M65.7061 59.3293C65.6773 58.5197 66.2863 57.9204 67.1452 57.9204C68.0001 57.9204 68.655 58.5163 68.6833 59.3293C68.7121 60.1428 68.0992 60.7381 67.2442 60.7381C66.3853 60.7381 65.7348 60.1384 65.7061 59.3293ZM68.046 59.3293C68.028 58.8115 67.6498 58.4577 67.1642 58.4577C66.6781 58.4577 66.3253 58.812 66.3434 59.3293C66.3614 59.847 66.7391 60.2013 67.2252 60.2013C67.7108 60.2008 68.0641 59.8465 68.046 59.3293Z" fill="#E8505B"/>
<path d="M69.1128 57.9668H70.3489C71.2385 57.9668 71.8675 58.5041 71.8968 59.3293C71.9261 60.1545 71.3342 60.6918 70.4441 60.6918H69.2079L69.1128 57.9668ZM70.3948 60.1735C70.935 60.1735 71.2776 59.8505 71.259 59.3293C71.241 58.8081 70.8759 58.4851 70.3352 58.4851H69.7599L69.8189 60.174H70.3948V60.1735Z" fill="#E8505B"/>
<path d="M74.51 60.1852L74.5275 60.6913H72.4208L72.3257 57.9668H74.3821L74.3997 58.4728H72.9689L72.9894 59.0643H74.2528L74.2704 59.5547H73.0069L73.0289 60.1852H74.51Z" fill="#E8505B"/>
<path d="M56.3164 70.8174L56.3359 71.9124H51.1988L51.1836 71.0467L53.9052 68.4188C54.5708 67.7718 54.6836 67.3633 54.6762 66.9758C54.6655 66.3385 54.2205 65.9701 53.3645 65.9701C52.6876 65.9701 52.1245 66.1989 51.7448 66.6967L50.8264 65.9998C51.3515 65.2732 52.3099 64.8452 53.4548 64.8452C54.9681 64.8452 55.9572 65.6114 55.9787 66.846C55.9904 67.5229 55.8123 68.1402 54.8622 69.0459L53.0317 70.8179H56.3164V70.8174Z" fill="#263238"/>
<path d="M61.9937 69.8224C62.0142 70.997 61.1461 72.012 59.2741 72.012C58.2884 72.012 57.2977 71.7134 56.6418 71.2059L57.1816 70.2001C57.6862 70.6178 58.4479 70.8872 59.2341 70.8872C60.1598 70.8872 60.7005 70.4787 60.6888 69.8321C60.6781 69.2046 60.2125 68.7966 59.1575 68.7966H58.5202L58.505 67.9109L60.0544 66.0296H56.8888L56.8702 64.9448H61.619L61.6336 65.8105L59.9763 67.8216C61.2944 67.9904 61.9752 68.7766 61.9937 69.8224Z" fill="#263238"/>
<path d="M68.4958 69.9116C68.5188 71.2058 67.4076 72.012 65.6752 72.012C63.9428 72.012 62.8243 71.2058 62.8014 69.9116C62.7882 69.145 63.1761 68.5779 63.8871 68.2495C63.3245 67.9406 63.0068 67.4428 62.9956 66.786C62.9746 65.5914 64.0067 64.8447 65.5498 64.8447C67.1031 64.8447 68.1713 65.5914 68.1923 66.786C68.2035 67.4428 67.8941 67.9406 67.3319 68.2495C68.0644 68.5779 68.4826 69.145 68.4958 69.9116ZM67.1909 69.8721C67.1787 69.185 66.5741 68.757 65.6181 68.757C64.6626 68.757 64.0921 69.185 64.1043 69.8721C64.1165 70.5787 64.7016 70.9969 65.6571 70.9969C66.6131 70.9965 67.2031 70.5782 67.1909 69.8721ZM64.2707 66.8455C64.281 67.4428 64.7856 67.821 65.602 67.821C66.4282 67.821 66.9298 67.4428 66.9191 66.8455C66.9084 66.2184 66.3642 65.8598 65.5678 65.8598C64.7709 65.8603 64.2595 66.2184 64.2707 66.8455Z" fill="#263238"/>
<path d="M74.9868 69.9116C75.0097 71.2058 73.8985 72.012 72.1661 72.012C70.4337 72.012 69.3153 71.2058 69.2923 69.9116C69.2791 69.145 69.6671 68.5779 70.3781 68.2495C69.8154 67.9406 69.4978 67.4428 69.4865 66.786C69.4656 65.5914 70.4977 64.8447 72.0407 64.8447C73.594 64.8447 74.6623 65.5914 74.6833 66.786C74.695 67.4428 74.3851 67.9406 73.8229 68.2495C74.5554 68.5779 74.9731 69.145 74.9868 69.9116ZM73.6819 69.8721C73.6697 69.185 73.065 68.757 72.1091 68.757C71.1536 68.757 70.5831 69.185 70.5953 69.8721C70.6075 70.5787 71.1926 70.9969 72.1481 70.9969C73.1041 70.9965 73.6941 70.5782 73.6819 69.8721ZM70.7612 66.8455C70.7719 67.4428 71.276 67.821 72.0925 67.821C72.9186 67.821 73.4203 67.4428 73.4096 66.8455C73.3988 66.2184 72.8547 65.8598 72.0578 65.8598C71.2619 65.8603 70.7505 66.2184 70.7612 66.8455Z" fill="#263238"/>
<path d="M37.9387 47.3105L38.8039 59.106" stroke="#E8505B" stroke-miterlimit="10" stroke-linecap="round" stroke-linejoin="round"/>
<path d="M37.5444 41.937L37.7728 45.05" stroke="#E8505B" stroke-miterlimit="10" stroke-linecap="round" stroke-linejoin="round"/>
<path d="M60.7043 30.2092V23.0278" stroke="#E8505B" stroke-miterlimit="10" stroke-linecap="round" stroke-linejoin="round"/>
<path d="M55.0197 31.7284L51.4304 25.5132" stroke="#E8505B" stroke-miterlimit="10" stroke-linecap="round" stroke-linejoin="round"/>
<path d="M69.9784 25.5132L66.3892 31.7313" stroke="#E8505B" stroke-miterlimit="10" stroke-linecap="round" stroke-linejoin="round"/>
<path d="M153.679 157.659C151.213 167.54 150.212 177.786 150.718 187.958" stroke="#E8505B" stroke-miterlimit="10"/>
<path d="M151.9 157.226L151.9 157.226C151.884 156.591 152.387 156.063 153.023 156.048C153.658 156.033 154.185 156.535 154.2 157.17C154.209 157.552 154.064 158.538 153.796 159.444C153.662 159.893 153.509 160.287 153.349 160.559C153.269 160.695 153.199 160.779 153.148 160.825C153.145 160.828 153.141 160.831 153.138 160.833C153.134 160.831 153.131 160.828 153.127 160.825C153.074 160.782 153 160.702 152.914 160.569C152.741 160.305 152.568 159.92 152.413 159.478C152.101 158.586 151.909 157.608 151.9 157.226ZM153.109 160.853C153.109 160.853 153.109 160.853 153.11 160.853L153.109 160.853ZM153.167 160.851C153.167 160.852 153.168 160.852 153.168 160.852L153.167 160.851Z" fill="#E8505B" stroke="#E8505B"/>
<path d="M152.15 167.55L152.15 167.549C152.14 167.167 152.285 166.181 152.554 165.275C152.687 164.826 152.841 164.432 153.001 164.16C153.081 164.024 153.15 163.94 153.201 163.895C153.205 163.892 153.208 163.889 153.212 163.886C153.215 163.888 153.219 163.891 153.222 163.894C153.276 163.937 153.349 164.018 153.436 164.15C153.608 164.414 153.781 164.8 153.936 165.242C154.248 166.133 154.44 167.111 154.449 167.494C154.465 168.129 153.962 168.656 153.327 168.672C152.692 168.687 152.165 168.185 152.15 167.55ZM153.241 163.866C153.241 163.866 153.24 163.866 153.239 163.867L153.241 163.866ZM153.183 163.868C153.182 163.868 153.181 163.867 153.181 163.867L153.183 163.868Z" fill="#E8505B" stroke="#E8505B"/>
<path d="M151.648 162.396C151.646 162.393 151.643 162.39 151.639 162.386C151.594 162.335 151.51 162.266 151.374 162.185C151.102 162.025 150.708 161.872 150.259 161.739C149.354 161.47 148.368 161.325 147.985 161.334L151.648 162.396ZM151.648 162.396C151.646 162.4 151.643 162.403 151.64 162.407C151.597 162.461 151.517 162.534 151.384 162.621C151.12 162.794 150.735 162.966 150.293 163.121C149.401 163.433 148.423 163.625 148.041 163.635C147.406 163.65 146.878 163.147 146.863 162.512L151.648 162.396ZM151.667 162.366C151.667 162.366 151.667 162.367 151.666 162.368L151.667 162.366ZM151.668 162.424C151.668 162.425 151.668 162.425 151.668 162.425L151.668 162.424ZM146.863 162.512C146.847 161.877 147.35 161.35 147.985 161.334L146.863 162.512Z" fill="#E8505B" stroke="#E8505B"/>
<path d="M154.7 162.323C154.703 162.319 154.705 162.316 154.709 162.312C154.751 162.258 154.832 162.185 154.964 162.099C155.228 161.926 155.614 161.753 156.056 161.598C156.948 161.286 157.925 161.094 158.308 161.085C158.943 161.07 159.471 161.572 159.486 162.207C159.501 162.842 158.999 163.369 158.364 163.384C157.981 163.394 156.995 163.249 156.089 162.98C155.64 162.847 155.247 162.693 154.975 162.533C154.838 162.453 154.754 162.384 154.709 162.333C154.706 162.329 154.703 162.326 154.7 162.323ZM154.682 162.353C154.682 162.353 154.682 162.352 154.682 162.351L154.682 162.353ZM154.681 162.295C154.68 162.294 154.68 162.293 154.68 162.293L154.681 162.295Z" fill="#E8505B" stroke="#E8505B"/>
<path d="M148.604 158.005L148.604 158.005C149.042 157.545 149.77 157.527 150.23 157.965C150.507 158.229 151.102 159.029 151.552 159.859C151.775 160.271 151.945 160.658 152.024 160.964C152.064 161.117 152.075 161.225 152.07 161.293C152.07 161.298 152.07 161.303 152.069 161.307C152.065 161.308 152.06 161.308 152.055 161.309C151.988 161.316 151.879 161.311 151.724 161.279C151.415 161.214 151.021 161.063 150.598 160.86C149.747 160.45 148.92 159.895 148.643 159.631C148.183 159.193 148.166 158.465 148.604 158.005ZM152.063 161.342C152.063 161.342 152.063 161.341 152.063 161.34L152.063 161.342ZM152.102 161.299C152.103 161.299 152.104 161.299 152.104 161.299L152.102 161.299Z" fill="#E8505B" stroke="#E8505B"/>
<path d="M157.745 166.714L157.745 166.715C157.307 167.175 156.579 167.192 156.119 166.754C155.842 166.49 155.247 165.69 154.797 164.86C154.573 164.448 154.404 164.061 154.324 163.756C154.285 163.603 154.274 163.494 154.278 163.426C154.279 163.421 154.279 163.417 154.28 163.412C154.284 163.412 154.288 163.411 154.293 163.411C154.361 163.403 154.47 163.408 154.625 163.441C154.934 163.505 155.328 163.656 155.75 163.859C156.601 164.269 157.429 164.824 157.706 165.088C158.166 165.527 158.183 166.255 157.745 166.714ZM154.246 163.42C154.246 163.42 154.245 163.421 154.245 163.421L154.246 163.42ZM154.286 163.378C154.286 163.378 154.286 163.378 154.285 163.379L154.286 163.378Z" fill="#E8505B" stroke="#E8505B"/>
<path d="M148.819 166.93L148.819 166.93C149.28 167.369 150.008 167.351 150.446 166.891M148.819 166.93L148.78 165.304C149.044 165.027 149.844 164.432 150.674 163.982C151.086 163.759 151.473 163.589 151.778 163.51C151.931 163.47 152.039 163.46 152.108 163.464C152.113 163.464 152.117 163.464 152.121 163.465C152.122 163.469 152.123 163.474 152.123 163.479C152.131 163.546 152.125 163.655 152.093 163.81C152.029 164.119 151.878 164.513 151.675 164.936C151.265 165.787 150.71 166.614 150.446 166.891M148.819 166.93C148.359 166.492 148.342 165.764 148.78 165.304L148.819 166.93ZM150.446 166.891L150.808 167.236L150.446 166.891ZM152.156 163.471C152.156 163.471 152.156 163.471 152.155 163.471L152.156 163.471ZM152.114 163.432C152.113 163.431 152.113 163.431 152.113 163.431L152.114 163.432Z" fill="#E8505B" stroke="#E8505B"/>
<path d="M157.569 159.415L157.569 159.415C157.305 159.692 156.505 160.287 155.675 160.737C155.263 160.961 154.876 161.13 154.571 161.209C154.418 161.249 154.309 161.26 154.241 161.255C154.236 161.255 154.232 161.255 154.227 161.254C154.227 161.25 154.226 161.246 154.226 161.241C154.218 161.173 154.223 161.064 154.256 160.909C154.32 160.6 154.471 160.206 154.674 159.784C155.084 158.932 155.639 158.105 155.903 157.828C156.341 157.368 157.07 157.35 157.529 157.789L157.53 157.789C157.99 158.227 158.007 158.955 157.569 159.415ZM154.193 161.248C154.193 161.248 154.193 161.248 154.194 161.248L154.193 161.248ZM154.235 161.288C154.235 161.288 154.236 161.289 154.236 161.289L154.235 161.288Z" fill="#E8505B" stroke="#E8505B"/>
<path d="M151.721 162.395L151.721 162.395C151.701 161.591 152.336 160.925 153.139 160.906L153.139 160.906C153.942 160.887 154.609 161.522 154.628 162.325C154.648 163.128 154.013 163.795 153.21 163.814L153.209 163.814C152.407 163.834 151.74 163.198 151.721 162.395Z" fill="white" stroke="#E8505B"/>
<path d="M151.501 176.42C152.753 176.344 153.715 175.943 154.461 175.381C155.322 174.734 155.924 173.853 156.343 172.944C156.763 172.035 156.992 171.117 157.115 170.421C157.117 170.411 157.118 170.402 157.12 170.392C156.486 170.777 155.524 171.244 154.152 171.64L151.501 176.42ZM151.501 176.42C151.509 176.357 151.519 176.289 151.53 176.218C151.602 175.755 151.725 175.133 151.928 174.493C152.35 173.162 153.05 171.958 154.152 171.64L151.501 176.42Z" fill="#E8505B" stroke="#E8505B"/>
<path opacity="0.5" d="M151.501 176.42C152.753 176.344 153.715 175.943 154.461 175.381C155.322 174.734 155.924 173.853 156.343 172.944C156.763 172.035 156.992 171.117 157.115 170.421C157.117 170.411 157.118 170.402 157.12 170.392C156.486 170.777 155.524 171.244 154.152 171.64L151.501 176.42ZM151.501 176.42C151.509 176.357 151.519 176.289 151.53 176.218C151.602 175.755 151.725 175.133 151.928 174.493C152.35 173.162 153.05 171.958 154.152 171.64L151.501 176.42Z" fill="white" stroke="#E8505B"/>
<path d="M144.4 174.207C144.401 174.217 144.403 174.226 144.405 174.236C144.528 174.931 144.757 175.85 145.176 176.759C145.596 177.668 146.198 178.549 147.058 179.196C147.805 179.757 148.767 180.159 150.019 180.235C150.01 180.172 150.001 180.104 149.99 180.033C149.918 179.57 149.795 178.948 149.592 178.308C149.17 176.977 148.47 175.773 147.368 175.455L144.4 174.207ZM144.4 174.207C145.033 174.592 145.995 175.059 147.368 175.455L144.4 174.207Z" fill="#E8505B" stroke="#E8505B"/>
<path opacity="0.5" d="M144.4 174.207C144.401 174.217 144.403 174.226 144.405 174.236C144.528 174.931 144.757 175.85 145.176 176.759C145.596 177.668 146.198 178.549 147.058 179.196C147.805 179.757 148.767 180.159 150.019 180.235C150.01 180.172 150.001 180.104 149.99 180.033C149.918 179.57 149.795 178.948 149.592 178.308C149.17 176.977 148.47 175.773 147.368 175.455L144.4 174.207ZM144.4 174.207C145.033 174.592 145.995 175.059 147.368 175.455L144.4 174.207Z" fill="white" stroke="#E8505B"/>
<path d="M143.604 186.522L143.604 186.522L143.605 186.521C144.644 185.826 145.918 185.282 147.346 184.956H153.782C155.254 185.297 156.56 185.859 157.611 186.581L157.612 186.582C159.386 187.794 160.405 189.404 160.405 191.127C160.405 192.857 159.375 194.479 157.595 195.691C155.816 196.9 153.332 197.664 150.564 197.664C147.794 197.664 145.31 196.9 143.532 195.691C141.752 194.479 140.724 192.857 140.724 191.127C140.724 189.378 141.778 187.734 143.604 186.522Z" fill="#E8505B" stroke="#E8505B"/>
<path opacity="0.8" d="M157.611 186.581L157.612 186.582C159.386 187.794 160.405 189.404 160.405 191.127C160.405 192.857 159.375 194.479 157.595 195.691C155.816 196.9 153.332 197.664 150.564 197.664C147.794 197.664 145.31 196.9 143.532 195.691C141.752 194.479 140.724 192.857 140.724 191.127C140.724 189.378 141.778 187.734 143.604 186.522L143.604 186.522L143.605 186.521C144.644 185.826 145.918 185.282 147.346 184.956H153.782C155.254 185.297 156.56 185.859 157.611 186.581Z" fill="white" stroke="#E8505B"/>
<path d="M150.594 185.089C150.594 186.249 150.594 187.409 150.594 188.568" stroke="#E8505B" stroke-miterlimit="10"/>
<path d="M143.696 185.575L143.464 184.848H157.664L157.43 185.575H143.696Z" fill="#E8505B" stroke="#E8505B"/>
<path d="M155.477 195.514L155.477 195.514C154.945 195.796 153.906 196.057 152.578 196.18C151.268 196.301 149.734 196.282 148.244 196.044C145.213 195.559 142.607 194.221 142.077 191.587L142.077 191.587C142.066 191.532 142.052 191.479 142.042 191.443C142.041 191.44 142.041 191.436 142.04 191.433C142.029 191.392 142.023 191.369 142.02 191.35L142.019 191.349C141.8 190.156 142.873 189.037 144.142 189.164L144.142 189.164C145.184 189.268 146.254 189.143 147.229 188.995L147.23 188.994C150.9 188.435 154.684 188.64 158.275 189.587C159.437 189.893 159.951 191.275 159.272 192.256C158.33 193.617 156.978 194.717 155.477 195.514ZM141.587 191.685L141.587 191.685L141.587 191.685ZM144.192 188.666L144.192 188.666L144.192 188.666Z" fill="#263238" stroke="#E8505B"/>
<path d="M84.6851 190.569C84.8681 190.503 84.9896 190.359 85.0467 190.14C85.0897 189.974 85.0277 189.866 84.9682 189.804C84.5919 189.411 83.0655 189.69 82.8927 189.723C82.8527 189.731 82.8215 189.761 82.8127 189.8C82.8039 189.839 82.82 189.88 82.8527 189.903C83.106 190.082 83.4759 190.318 83.8433 190.467C84.1488 190.59 84.4524 190.652 84.6851 190.569ZM84.8198 189.941C84.8447 189.967 84.8706 190.007 84.8491 190.09C84.8096 190.243 84.733 190.338 84.6153 190.38C84.3387 190.48 83.8092 190.293 83.1743 189.877C83.7877 189.783 84.6222 189.732 84.8198 189.941Z" fill="#E8505B"/>
<path d="M82.9248 189.92C83.3918 189.862 84.4664 189.311 84.5606 188.834C84.5786 188.743 84.5757 188.571 84.3517 188.448C84.2102 188.369 84.0584 188.357 83.9018 188.411C83.3128 188.612 82.8379 189.736 82.8174 189.784C82.8038 189.816 82.8087 189.854 82.8306 189.883C82.8418 189.897 82.8565 189.908 82.8726 189.914C82.8892 189.92 82.9067 189.922 82.9248 189.92ZM84.2522 188.622C84.3664 188.685 84.3703 188.748 84.3605 188.795C84.3029 189.086 83.588 189.537 83.0863 189.681C83.2644 189.315 83.6168 188.719 83.9681 188.599C84.0535 188.57 84.1331 188.57 84.2102 188.602C84.2243 188.608 84.2385 188.614 84.2522 188.622Z" fill="#E8505B"/>
<path d="M78.2917 187.954L82.2646 189.559L85.7318 180.38L81.759 178.774L78.2917 187.954Z" fill="#E8505B"/>
<path d="M82.7682 189.234L78.3049 187.43C78.1424 187.364 77.9643 187.422 77.8765 187.569L75.9176 190.838C75.7146 191.178 75.8869 191.646 76.2641 191.791C77.8311 192.394 78.6187 192.607 80.5814 193.4C81.7888 193.888 83.5016 194.724 85.1691 195.398C86.8 196.058 87.6028 194.486 86.9699 194.058C84.1316 192.141 84.0189 191.034 83.3323 189.743C83.2079 189.51 83.0058 189.33 82.7682 189.234Z" fill="#263238"/>
<path d="M85.6811 184.884L78.7812 182.095L79.4132 179.566L86.8162 182.274L85.6811 184.884Z" fill="#E8505B"/>
<path d="M92.5891 78.6396C91.1895 82.6914 87.0449 92.2367 83.852 88.261C83.282 87.5514 82.7959 86.7828 82.4573 85.9381C81.1016 82.5933 80.7683 77.1765 80.5965 75.9926L79.5088 72.2795C79.4897 72.2155 79.48 72.1487 79.4795 72.0823L79.4619 69.9619C79.4619 69.1026 80.1544 68.5916 81.0923 68.6702C81.0923 68.6702 82.6051 68.4935 82.6051 69.3973L82.8999 72.5796H82.8901C83.0424 73.6898 82.6002 75.2318 82.8608 76.2484C83.8334 80.0694 85.1783 80.2412 86.0231 84.1847C87.1967 81.3411 89.3039 76.4152 89.3039 76.4152C90.723 76.5914 93.0508 77.3034 92.5891 78.6396Z" fill="#E8505B"/>
<path d="M87.5847 89.7165C86.6312 91.1873 84.4859 91.2722 83.4518 89.8575C82.8199 88.9928 82.3192 88.0402 82.1015 87.3224C80.8342 83.1626 80.0485 80.5841 79.9407 76.2374C80.8249 75.319 82.2636 74.9755 83.467 75.4025L85.5444 82.4453C85.5444 82.4453 89.7778 71.9289 91.4868 71.5507C93.5051 71.1086 94.345 72.9073 95.1946 75.1224C95.807 76.7167 90.3419 85.4626 87.5847 89.7165Z" fill="#E8505B"/>
<path d="M104.679 61.0273C104.2 63.4683 103.125 68.7934 104.833 70.4223C104.833 70.4223 104.166 72.8984 99.63 72.8984C94.6426 72.8984 97.2466 70.4223 97.2466 70.4223C99.9687 69.7723 99.8984 67.7525 99.4245 65.8561L104.679 61.0273Z" fill="#E8505B"/>
<path d="M97.05 55.2707C97.0793 55.2707 97.109 55.2639 97.1369 55.2502C97.233 55.2019 97.272 55.0848 97.2237 54.9886C96.7411 54.0248 95.8481 53.9131 95.8105 53.9087C95.7041 53.8955 95.607 53.9736 95.5948 54.0805C95.5826 54.1868 95.6592 54.2835 95.7656 54.2957C95.7954 54.2991 96.4903 54.3938 96.8753 55.1628C96.9099 55.2312 96.9788 55.2702 97.05 55.2707Z" fill="#263238"/>
<path d="M95.5629 57.4038C95.5629 57.4038 94.8285 58.7526 94.1287 59.3602C94.5132 59.8199 95.2755 59.7257 95.2755 59.7257L95.5629 57.4038Z" fill="#E8505B"/>
<path d="M95.9548 56.6897C96.0251 57.0142 95.9104 57.3143 95.6981 57.3602C95.4863 57.4061 95.2574 57.1806 95.1872 56.8561C95.1169 56.5316 95.2316 56.2315 95.4434 56.1856C95.6552 56.1397 95.884 56.3657 95.9548 56.6897Z" fill="#263238"/>
<path d="M95.541 56.1836L94.7134 56.1279C94.7134 56.1279 95.2448 56.6496 95.541 56.1836Z" fill="#263238"/>
<path d="M78.5697 68.4976V68.5072C78.5697 68.5024 78.5649 68.5024 78.5649 68.4976H78.5697Z" fill="#E8505B"/>
<path opacity="0.2" d="M92.4135 76.5559C93.2777 75.7649 93.8623 76.0011 94.2601 76.6296C94.6529 78.4567 92.3251 82.2826 91.3872 83.7315L92.4135 76.5559Z" fill="black"/>
<path d="M112.4 78.9625C112.288 80.9731 112.098 83.5058 111.79 86.6924C111.468 90.0548 111.01 94.1393 110.38 99.1023C103.748 99.1023 96.8038 98.9998 93.5782 98.9998C93.848 92.4079 93.9476 85.7286 90.9903 72.6083C90.8351 71.9187 91.2865 71.2365 91.9824 71.1126C93.322 70.8739 95.5414 70.5328 97.7998 70.4225C100.611 70.2859 102.914 70.198 105.388 70.4225C108.643 70.7202 112.342 71.4766 112.342 71.4766C112.342 71.4766 112.752 72.6868 112.4 78.9625Z" fill="#E8505B"/>
<path opacity="0.2" d="M112.4 78.9626C112.288 80.9732 112.098 83.5059 111.79 86.6925C110.004 84.6234 108.316 77.4986 108.853 75.0635C110.17 75.9614 111.39 77.3424 112.322 78.5771C112.352 78.6942 112.381 78.8206 112.4 78.9626Z" fill="black"/>
<path d="M129.621 87.8949L133.02 85.9839L133.655 89.4633C133.655 89.4633 130.775 90.5667 129.25 89.7937L129.621 87.8949Z" fill="#E8505B"/>
<path d="M135.296 86.3791L135.532 87.5147C135.607 87.8719 135.458 88.2384 135.157 88.4433L133.655 89.4633L133.02 85.9838L134.195 85.6891C134.692 85.5641 135.192 85.8779 135.296 86.3791Z" fill="#E8505B"/>
<path d="M109.127 75.5097C110.217 77.7262 114.211 86.0934 115.967 88.0278L116.311 88.3885L116.483 88.5681C116.541 88.6286 116.588 88.6822 116.682 88.7642C117.011 89.0741 117.362 89.3342 117.717 89.547C118.43 89.974 119.151 90.2243 119.845 90.4059C121.235 90.7533 122.556 90.8099 123.837 90.785C126.404 90.6845 128.806 90.2536 131.206 89.5333L130.769 87.4959C129.644 87.5916 128.462 87.6609 127.319 87.6799C126.17 87.7116 125.028 87.6794 123.927 87.5725C122.829 87.4774 121.759 87.2851 120.855 86.9747C120.408 86.8161 120.014 86.6141 119.72 86.4018C119.572 86.2964 119.454 86.1852 119.357 86.0783C119.337 86.0632 119.288 86.0022 119.247 85.9524L119.119 85.8001L118.865 85.4966C117.516 83.8086 113.959 75.6697 112.891 73.6353L109.127 75.5097Z" fill="#E8505B"/>
<path d="M129.568 91.3568C126.798 92.8495 123.424 93.1789 120.418 92.2459C117.56 91.3568 115.016 89.2842 113.542 86.6763C111.779 84.0831 107.089 76.7538 107.679 74.858C108.376 72.5936 109.859 71.1892 112.339 71.7982C114.083 72.2208 117.407 80.6798 119.013 84.0636C119.647 85.0064 120.855 86.4997 122.206 86.9613C124.593 87.7865 126.351 87.4279 128.851 87.0745C129.308 87.3498 129.273 87.7719 129.504 88.2482C129.976 89.2105 130.054 90.4042 129.568 91.3568Z" fill="#E8505B"/>
<path d="M107.139 57.1136C106.391 61.1274 106.159 62.8417 103.86 64.6649C100.401 67.4074 95.6352 65.6096 95.1696 61.4533C94.7504 57.7123 96.0456 51.7773 100.203 50.6573C104.3 49.5549 107.888 53.1003 107.139 57.1136Z" fill="#E8505B"/>
<path d="M121.378 79.3251C120.612 80.1986 120.37 80.7042 119.306 81.1775C118.242 81.6509 115.92 81.2385 115.183 80.3357C115.422 81.0385 116.82 82.3019 117.552 82.3995C115.932 83.3462 113.653 82.946 112.447 81.5016C112.564 82.3556 113.37 83.1217 114.185 83.4096C104.833 83.6512 108.771 79.2504 102.919 72.9928C96.4355 66.0608 97.8415 60.3321 97.8415 60.3321C97.8366 59.3415 97.617 57.6969 96.5678 56.3598C95.6308 55.1593 95.9041 53.5392 96.2018 52.6315C96.6361 51.2992 97.9586 50.8308 99.2274 50.7527C99.4509 49.438 102.137 49.6801 102.48 49.8997C102.775 50.088 102.85 50.0724 103.145 49.8836C103.805 49.4605 105.464 49.0188 107.24 50.455C108.324 51.3319 109.482 52.9048 109.521 56.2524C109.562 59.7338 107.901 63.8638 113.655 69.1527C117.047 72.2696 115.426 78.9601 121.378 79.3251Z" fill="#263238"/>
<path d="M97.0703 57.4167C96.577 58.0999 96.4354 58.949 96.5443 59.6342C96.7077 60.6644 97.7121 60.7327 98.4392 60.0724C99.0936 59.478 99.7968 58.2258 99.261 57.3718C98.7329 56.5305 97.6345 56.6359 97.0703 57.4167Z" fill="#E8505B"/>
<path d="M106.127 99.1005C106.127 99.1005 104.134 127.115 101.885 145.593C101.211 151.13 99.5236 156.497 96.9001 161.44L85.8776 182.208L80.2358 179.989C80.2358 179.989 84.1223 160.248 91.7443 149.484C91.7443 149.484 86.0552 117.31 93.5011 99.002L106.127 99.1005Z" fill="#263238"/>
<path opacity="0.2" d="M98.4554 105.884C98.4554 105.884 100.133 118.592 101.055 126.123C97.5941 121.584 94.9438 115.252 98.4554 105.884Z" fill="black"/>
<path d="M120.373 193.2C120.503 193.057 120.542 192.874 120.488 192.654C120.448 192.489 120.341 192.421 120.259 192.394C119.739 192.22 118.523 193.17 118.386 193.278C118.355 193.303 118.341 193.345 118.352 193.383C118.363 193.421 118.396 193.45 118.436 193.456C118.745 193.497 119.185 193.536 119.58 193.498C119.909 193.465 120.207 193.38 120.373 193.2ZM120.193 192.583C120.227 192.594 120.27 192.618 120.29 192.701C120.327 192.855 120.306 192.974 120.222 193.065C120.024 193.28 119.468 193.359 118.709 193.285C119.207 192.919 119.919 192.49 120.193 192.583Z" fill="#E8505B"/>
<path d="M118.509 193.438C118.894 193.171 119.581 192.189 119.437 191.724C119.41 191.635 119.326 191.485 119.069 191.479C118.906 191.474 118.766 191.533 118.654 191.653C118.229 192.102 118.344 193.314 118.349 193.365C118.353 193.4 118.375 193.432 118.408 193.446C118.425 193.454 118.443 193.457 118.46 193.455C118.477 193.454 118.494 193.448 118.509 193.438ZM119.064 191.679C119.195 191.682 119.228 191.735 119.243 191.782C119.33 192.065 118.913 192.793 118.538 193.152C118.522 192.747 118.549 192.058 118.802 191.79C118.864 191.725 118.935 191.689 119.018 191.681C119.033 191.679 119.048 191.679 119.064 191.679Z" fill="#E8505B"/>
<path d="M113.48 193.835L117.754 193.423L116.45 183.715L112.176 184.127L113.48 193.835Z" fill="#E8505B"/>
<path d="M118.044 192.904L113.242 193.367C113.068 193.384 112.938 193.517 112.929 193.687L112.754 197.478C112.736 197.871 113.112 198.206 113.514 198.16C115.186 197.97 115.982 197.796 118.094 197.593C119.394 197.467 121.305 197.418 123.099 197.245C124.854 197.075 124.815 195.317 124.052 195.231C120.632 194.845 120.005 193.918 118.784 193.094C118.564 192.945 118.3 192.879 118.044 192.904Z" fill="#263238"/>
<path d="M110.354 99.0937C110.354 99.0937 115.822 132.527 116.876 152.332L117.073 187.807L112.648 188.67C112.648 188.67 106.238 166.038 105.501 152.956C103.544 118.246 92.2382 118.189 99.04 99.0317L110.354 99.0937Z" fill="#263238"/>
<path d="M118.542 187.952L111.216 188.956L110.473 186.142L118.303 185.124L118.542 187.952Z" fill="#E8505B"/>
<path d="M78.5787 68.5308H78.5649L78.5695 68.5078C78.5695 68.517 78.5741 68.5216 78.5787 68.5308Z" fill="#E8505B"/>
<path d="M79.0492 63.2275H79.3294C79.0478 63.2275 78.8311 63.4559 78.8458 63.738L79.2913 72.236C79.3059 72.5176 79.5465 72.7465 79.8281 72.7465H79.548C79.2664 72.7465 79.0258 72.5181 79.0112 72.236L78.5656 63.738C78.551 63.4559 78.7677 63.2275 79.0492 63.2275Z" fill="#E8505B"/>
<path opacity="0.1" d="M79.0492 63.2275H79.3294C79.0478 63.2275 78.8311 63.4559 78.8458 63.738L79.2913 72.236C79.3059 72.5176 79.5465 72.7465 79.8281 72.7465H79.548C79.2664 72.7465 79.0258 72.5181 79.0112 72.236L78.5656 63.738C78.551 63.4559 78.7677 63.2275 79.0492 63.2275Z" fill="white"/>
<path d="M79.6315 72.7465H83.0592C83.3413 72.7465 83.5574 72.5181 83.5428 72.236L83.0973 63.738C83.0826 63.4564 82.842 63.2275 82.5605 63.2275H79.1327C78.8512 63.2275 78.6345 63.4559 78.6491 63.738L79.0947 72.236C79.1093 72.5176 79.3499 72.7465 79.6315 72.7465Z" fill="#E8505B"/>
<path opacity="0.4" d="M79.6315 72.7465H83.0592C83.3413 72.7465 83.5574 72.5181 83.5428 72.236L83.0973 63.738C83.0826 63.4564 82.842 63.2275 82.5605 63.2275H79.1327C78.8512 63.2275 78.6345 63.4559 78.6491 63.738L79.0947 72.236C79.1093 72.5176 79.3499 72.7465 79.6315 72.7465Z" fill="white"/>
<path d="M83.3285 72.059C83.3334 72.1469 83.3041 72.2298 83.2456 72.2933C83.187 72.3518 83.1041 72.386 83.0162 72.386H79.6929C79.5026 72.386 79.3416 72.2298 79.3318 72.0395L78.8975 63.7972C78.8926 63.7093 78.9219 63.6264 78.9805 63.5678C79.039 63.5044 79.122 63.4702 79.2098 63.4702H82.5331C82.7234 63.4702 82.8845 63.6264 82.8942 63.8167L82.9235 64.4072L83.3285 72.059Z" fill="#263238"/>
<g opacity="0.1">
<path d="M82.9234 64.4072L81.8205 72.386H80.498L81.7473 63.4702H82.533C82.7233 63.4702 82.8844 63.6264 82.8941 63.8167L82.9234 64.4072Z" fill="white"/>
<path d="M80.0198 72.386H79.7217L80.9714 63.4707H81.2701L80.0198 72.386Z" fill="white"/>
</g>
<path d="M92.4985 100.047C90.0136 104.918 88.6613 110.363 88.5789 115.832C96.8856 122.268 104.6 114.731 114.096 116.004C113.765 111.715 112.308 103.78 110.577 99.8417C104.303 100.107 98.4262 99.4806 92.4985 100.047Z" fill="#E8505B"/>
<path d="M93.3626 98.3051C93.3626 98.3051 92.6926 100.024 92.8844 100.024H110.295C110.445 100.024 110.569 99.9506 110.578 99.8565L110.728 98.3705C110.738 98.2675 110.608 98.1802 110.445 98.1802H93.633C93.509 98.1807 93.3997 98.2309 93.3626 98.3051Z" fill="white"/>
<path d="M95.8152 100.17H95.3648C95.275 100.17 95.2067 100.124 95.2131 100.068L95.4244 98.1372C95.4307 98.0805 95.5088 98.0347 95.5986 98.0347H96.049C96.1388 98.0347 96.2071 98.081 96.2008 98.1372L95.9895 100.068C95.9836 100.124 95.905 100.17 95.8152 100.17Z" fill="#E8505B"/>
<path d="M106.729 100.17H106.279C106.189 100.17 106.121 100.124 106.127 100.068L106.338 98.1372C106.345 98.0805 106.423 98.0347 106.512 98.0347H106.963C107.053 98.0347 107.121 98.081 107.115 98.1372L106.903 100.068C106.897 100.124 106.819 100.17 106.729 100.17Z" fill="#E8505B"/>
</g>
<defs>
<clipPath id="clip0_39_571">
<rect width="244" height="216" fill="white" transform="translate(0.5)"/>
</clipPath>
</defs>
</svg>
