<svg width="18" height="18" viewBox="0 0 18 18" fill="none" xmlns="http://www.w3.org/2000/svg">
<path fill-rule="evenodd" clip-rule="evenodd" d="M0 0.527344C0 0.2361 0.2361 0 0.527344 0H6.85547C7.14671 0 7.38281 0.2361 7.38281 0.527344C7.38281 0.818588 7.14671 1.05469 6.85547 1.05469H0.527344C0.2361 1.05469 0 0.818588 0 0.527344ZM10.6172 0.527344C10.6172 0.2361 10.8533 0 11.1445 0H17.4727C17.7639 0 18 0.2361 18 0.527344C18 0.818588 17.7639 1.05469 17.4727 1.05469H11.1445C10.8533 1.05469 10.6172 0.818588 10.6172 0.527344ZM1.40724 3.98175C1.2023 4.21189 1.05469 4.52661 1.05469 4.98916V14.2734C1.05469 14.5647 1.29077 14.8008 1.58203 14.8008H5.80078C6.09204 14.8008 6.32812 14.5647 6.32812 14.2734V4.98916C6.32812 4.52661 6.18051 4.21189 5.97557 3.98175C5.7609 3.74069 5.45749 3.56482 5.11581 3.4409C4.43946 3.19561 3.74363 3.19897 3.69369 3.19921C3.69264 3.19921 3.69188 3.19922 3.69141 3.19922C3.69093 3.19922 3.69017 3.19921 3.68912 3.19921C3.63918 3.19897 2.94335 3.19561 2.26701 3.4409C1.92532 3.56482 1.62191 3.74069 1.40724 3.98175ZM3.69141 2.14453C3.68971 2.14451 3.66799 2.14438 3.64093 2.14464C3.61053 2.14494 3.56923 2.14573 3.5186 2.14764C3.41753 2.15145 3.27871 2.15976 3.11467 2.17773C2.78944 2.21335 2.35142 2.28838 1.90742 2.4494C1.46548 2.60968 0.988953 2.86557 0.619594 3.28034C0.240505 3.70604 0 4.27122 0 4.98916V14.2734C0 15.1472 0.708283 15.8555 1.58203 15.8555H5.80078C6.67453 15.8555 7.38281 15.1472 7.38281 14.2734V4.98916C7.38281 4.27122 7.14231 3.70604 6.76322 3.28034C6.39386 2.86557 5.91733 2.60968 5.47539 2.4494C5.0314 2.28838 4.59338 2.21335 4.26814 2.17773C4.1041 2.15976 3.96528 2.15145 3.86421 2.14764C3.81359 2.14573 3.77229 2.14494 3.74188 2.14464C3.71482 2.14438 3.69311 2.14451 3.69141 2.14453ZM11.6367 5.83594C11.6367 5.54469 11.8728 5.30859 12.1641 5.30859H14.8008C15.9658 5.30859 16.9102 6.25299 16.9102 7.41797C16.9102 8.58295 15.9658 9.52734 14.8008 9.52734H12.6914V12.1641C12.6914 12.4553 12.4553 12.6914 12.1641 12.6914C11.8728 12.6914 11.6367 12.4553 11.6367 12.1641V5.83594ZM12.6914 8.47266H14.8008C15.3833 8.47266 15.8555 8.00046 15.8555 7.41797C15.8555 6.83547 15.3833 6.36328 14.8008 6.36328H12.6914V8.47266ZM9 6.36328C9.29124 6.36328 9.52734 6.59938 9.52734 6.89062V7.94531C9.52734 8.23656 9.29124 8.47266 9 8.47266C8.70876 8.47266 8.47266 8.23656 8.47266 7.94531V6.89062C8.47266 6.59938 8.70876 6.36328 9 6.36328ZM9 9.52734C9.29124 9.52734 9.52734 9.76344 9.52734 10.0547V11.1094C9.52734 11.4006 9.29124 11.6367 9 11.6367C8.70876 11.6367 8.47266 11.4006 8.47266 11.1094V10.0547C8.47266 9.76344 8.70876 9.52734 9 9.52734ZM9 12.6914C9.29124 12.6914 9.52734 12.9275 9.52734 13.2188V14.2734C9.52734 14.5647 9.29124 14.8008 9 14.8008C8.70876 14.8008 8.47266 14.5647 8.47266 14.2734V13.2188C8.47266 12.9275 8.70876 12.6914 9 12.6914ZM9 15.8555C9.29124 15.8555 9.52734 16.0916 9.52734 16.3828V17.4727C9.52734 17.7639 9.29124 18 9 18C8.70876 18 8.47266 17.7639 8.47266 17.4727V16.3828C8.47266 16.0916 8.70876 15.8555 9 15.8555ZM0 17.4727C0 17.1814 0.2361 16.9453 0.527344 16.9453H6.85547C7.14671 16.9453 7.38281 17.1814 7.38281 17.4727C7.38281 17.7639 7.14671 18 6.85547 18H0.527344C0.2361 18 0 17.7639 0 17.4727Z" fill="#E8505B"/>
<path fill-rule="evenodd" clip-rule="evenodd" d="M9 0C9.29124 0 9.52734 0.2361 9.52734 0.527344V1.61719C9.52734 1.90843 9.29124 2.14453 9 2.14453C8.70876 2.14453 8.47266 1.90843 8.47266 1.61719V0.527344C8.47266 0.2361 8.70876 0 9 0ZM9 3.19922C9.29124 3.19922 9.52734 3.43532 9.52734 3.72656V4.78125C9.52734 5.07249 9.29124 5.30859 9 5.30859C8.70876 5.30859 8.47266 5.07249 8.47266 4.78125V3.72656C8.47266 3.43532 8.70876 3.19922 9 3.19922ZM0 4.78125C0 4.49001 0.2361 4.25391 0.527344 4.25391H1.58203C1.87328 4.25391 2.10938 4.49001 2.10938 4.78125C2.10938 5.07249 1.87328 5.30859 1.58203 5.30859H0.527344C0.2361 5.30859 0 5.07249 0 4.78125ZM5.27344 4.78125C5.27344 4.49001 5.50954 4.25391 5.80078 4.25391H6.85547C7.14671 4.25391 7.38281 4.49001 7.38281 4.78125C7.38281 5.07249 7.14671 5.30859 6.85547 5.30859H5.80078C5.50954 5.30859 5.27344 5.07249 5.27344 4.78125ZM0.527344 7.94531C0.0999679 7.63638 0.100197 7.63606 0.100429 7.63574L0.100909 7.63508L0.101927 7.63368C0.102631 7.63272 0.103387 7.63169 0.104195 7.6306C0.105811 7.62842 0.107635 7.62599 0.109671 7.62331C0.113743 7.61795 0.118663 7.6116 0.124459 7.60435C0.136052 7.58983 0.151153 7.57166 0.169992 7.55039C0.207678 7.50783 0.260304 7.45287 0.329686 7.38993C0.46867 7.26386 0.673915 7.10667 0.959184 6.95342C1.53261 6.64536 2.41042 6.36328 3.69141 6.36328C4.97239 6.36328 5.8502 6.64536 6.42363 6.95342C6.7089 7.10667 6.91414 7.26386 7.05313 7.38993C7.12251 7.45287 7.17514 7.50783 7.21282 7.55039C7.23166 7.57166 7.24676 7.58983 7.25835 7.60435C7.26415 7.6116 7.26907 7.61795 7.27314 7.62331C7.27518 7.62599 7.277 7.62842 7.27862 7.6306C7.27943 7.63169 7.28018 7.63272 7.28089 7.63368L7.2819 7.63508L7.28238 7.63574C7.28262 7.63606 7.28284 7.63638 6.85547 7.94531L7.28284 7.63638C7.45346 7.87241 7.40044 8.20207 7.1644 8.37269C6.93092 8.54147 6.60581 8.4914 6.43367 8.26182C6.43223 8.26006 6.42879 8.25589 6.42322 8.2496C6.40983 8.23448 6.38413 8.20704 6.34451 8.1711C6.26549 8.09942 6.13003 7.99294 5.92449 7.88252C5.51631 7.66323 4.81209 7.41797 3.69141 7.41797C2.57073 7.41797 1.8665 7.66323 1.45832 7.88252C1.25278 7.99294 1.11732 8.09942 1.0383 8.1711C0.998685 8.20704 0.972985 8.23448 0.959595 8.2496C0.954023 8.25589 0.950579 8.26006 0.949147 8.26182M6.42885 8.2553C6.4289 8.25536 6.42895 8.25543 6.42899 8.25549L6.42885 8.2553ZM6.42899 8.25549L6.42896 8.25545L6.42885 8.2553L6.42854 8.25486M0.527344 10.582C0.818588 10.582 1.05469 10.8181 1.05469 11.1094C1.05469 11.9831 1.76299 12.6914 2.63672 12.6914H4.74609C5.61982 12.6914 6.32812 11.9831 6.32812 11.1094C6.32812 10.8181 6.56422 10.582 6.85547 10.582C7.14671 10.582 7.38281 10.8181 7.38281 11.1094C7.38281 12.5656 6.20231 13.7461 4.74609 13.7461H2.63672C1.1805 13.7461 0 12.5656 0 11.1094C0 10.8181 0.2361 10.582 0.527344 10.582ZM10.6172 17.4727C10.6172 17.1814 10.8533 16.9453 11.1445 16.9453H17.4727C17.7639 16.9453 18 17.1814 18 17.4727C18 17.7639 17.7639 18 17.4727 18H11.1445C10.8533 18 10.6172 17.7639 10.6172 17.4727Z" fill="#E8505B"/>
</svg>
