<svg width="16" height="16" viewBox="0 0 16 16" fill="none" xmlns="http://www.w3.org/2000/svg">
<g clip-path="url(#clip0_28_6131)">
<path d="M14.6886 0.130859H1.57381C1.22198 0.134545 0.885597 0.275946 0.636802 0.524741C0.388007 0.773536 0.246606 1.10991 0.24292 1.46174V14.5857C0.257977 14.9294 0.404484 15.2541 0.65217 15.4929C0.899856 15.7317 1.22979 15.8661 1.57381 15.8686H14.6886C15.0363 15.8681 15.3696 15.7298 15.6155 15.484C15.8613 15.2381 15.9996 14.9048 16 14.5571V1.44233C15.9996 1.09464 15.8613 0.761301 15.6155 0.515442C15.3696 0.269583 15.0363 0.131276 14.6886 0.130859ZM15.4754 14.5571C15.4754 14.7658 15.3925 14.9659 15.245 15.1135C15.0974 15.2611 14.8973 15.344 14.6886 15.344H1.57381C1.36684 15.3431 1.16804 15.2632 1.01813 15.1205C0.868221 14.9778 0.778556 14.7832 0.76751 14.5765V1.4704C0.769183 1.25627 0.854399 1.05126 1.00501 0.899033C1.15561 0.746809 1.35971 0.659408 1.57381 0.65545H14.6886C14.8973 0.65545 15.0974 0.738353 15.245 0.885923C15.3925 1.03349 15.4754 1.23364 15.4754 1.44233V14.5571Z" fill="white"/>
<path d="M10.4919 14.2944H1.83611V1.70428H3.67218C3.74174 1.70428 3.80846 1.67664 3.85765 1.62745C3.90684 1.57826 3.93447 1.51155 3.93447 1.44198C3.93447 1.37242 3.90684 1.3057 3.85765 1.25651C3.80846 1.20732 3.74174 1.17969 3.67218 1.17969H1.57382C1.50425 1.17969 1.43754 1.20732 1.38835 1.25651C1.33916 1.3057 1.31152 1.37242 1.31152 1.44198V14.5567C1.31152 14.6263 1.33916 14.693 1.38835 14.7422C1.43754 14.7914 1.50425 14.819 1.57382 14.819H10.4919C10.5614 14.819 10.6281 14.7914 10.6773 14.7422C10.7265 14.693 10.7541 14.6263 10.7541 14.5567C10.7541 14.4872 10.7265 14.4205 10.6773 14.3713C10.6281 14.3221 10.5614 14.2944 10.4919 14.2944ZM14.6886 1.17969H5.77054C5.70097 1.17969 5.63426 1.20732 5.58507 1.25651C5.53588 1.3057 5.50824 1.37242 5.50824 1.44198C5.50824 1.51155 5.53588 1.57826 5.58507 1.62745C5.63426 1.67664 5.70097 1.70428 5.77054 1.70428H14.4263V14.2944H12.5902C12.5206 14.2944 12.4539 14.3221 12.4047 14.3713C12.3556 14.4205 12.3279 14.4872 12.3279 14.5567C12.3279 14.6263 12.3556 14.693 12.4047 14.7422C12.4539 14.7914 12.5206 14.819 12.5902 14.819H14.6886C14.7581 14.819 14.8249 14.7914 14.874 14.7422C14.9232 14.693 14.9509 14.6263 14.9509 14.5567V1.44198C14.9509 1.37242 14.9232 1.3057 14.874 1.25651C14.8249 1.20732 14.7581 1.17969 14.6886 1.17969Z" fill="white"/>
<path d="M8.78683 2.75391H6.03273C5.82404 2.75391 5.62389 2.83681 5.47632 2.98438C5.32875 3.13195 5.24585 3.3321 5.24585 3.54079V12.4588C5.24585 12.6675 5.32875 12.8677 5.47632 13.0152C5.62389 13.1628 5.82404 13.2457 6.03273 13.2457H6.55732C6.76602 13.2457 6.96617 13.1628 7.11374 13.0152C7.26131 12.8677 7.34421 12.6675 7.34421 12.4588V9.31128H8.6987C9.52445 9.31712 10.3233 9.01782 10.9419 8.4708C11.5605 7.92379 11.9553 7.16761 12.0506 6.34735C12.0962 5.89181 12.045 5.43178 11.9004 4.99742C11.7557 4.56306 11.5209 4.16418 11.2112 3.82696C10.9038 3.48954 10.5294 3.21987 10.112 3.03512C9.69462 2.85037 9.2433 2.7546 8.78683 2.75391ZM11.5283 6.29882C11.446 6.98927 11.1117 7.62503 10.5895 8.08415C10.0673 8.54328 9.394 8.79346 8.6987 8.78669H7.08192C7.01235 8.78669 6.94563 8.81433 6.89644 8.86352C6.84725 8.91271 6.81962 8.97942 6.81962 9.04899V12.4588C6.81962 12.5284 6.79199 12.5951 6.7428 12.6443C6.69361 12.6935 6.62689 12.7211 6.55732 12.7211H6.03273C5.96317 12.7211 5.89645 12.6935 5.84726 12.6443C5.79807 12.5951 5.77044 12.5284 5.77044 12.4588V3.54079C5.77044 3.47123 5.79807 3.40451 5.84726 3.35532C5.89645 3.30613 5.96317 3.2785 6.03273 3.2785H8.78683C9.17032 3.2791 9.54948 3.35962 9.90011 3.51493C10.2507 3.67024 10.5652 3.89693 10.8233 4.18053C11.0834 4.46401 11.2807 4.79927 11.4022 5.16432C11.5237 5.52938 11.5667 5.91599 11.5283 6.29882Z" fill="white"/>
<path d="M8.78704 4.32715H7.08212C7.01255 4.32715 6.94584 4.35478 6.89665 4.40397C6.84746 4.45316 6.81982 4.51988 6.81982 4.58944V7.47469C6.81982 7.54425 6.84746 7.61097 6.89665 7.66016C6.94584 7.70935 7.01255 7.73698 7.08212 7.73698H8.78704C9.23921 7.73698 9.67286 7.55736 9.9926 7.23763C10.3123 6.91789 10.492 6.48424 10.492 6.03207C10.492 5.57989 10.3123 5.14624 9.9926 4.82651C9.67286 4.50677 9.23921 4.32715 8.78704 4.32715ZM8.78704 7.21239H7.34441V4.85174H8.78704C9.10008 4.85174 9.4003 4.97609 9.62165 5.19745C9.84301 5.4188 9.96737 5.71902 9.96737 6.03207C9.96737 6.34511 9.84301 6.64533 9.62165 6.86668C9.4003 7.08804 9.10008 7.21239 8.78704 7.21239Z" fill="white"/>
</g>
<defs>
<clipPath id="clip0_28_6131">
<rect width="16" height="16" fill="white"/>
</clipPath>
</defs>
</svg>
