<svg width="16" height="17" viewBox="0 0 16 17" fill="none" xmlns="http://www.w3.org/2000/svg">
<g clip-path="url(#clip0_51_810)">
<path d="M14.6885 0.630859H1.57374C1.22191 0.634545 0.885536 0.775946 0.636741 1.02474C0.387946 1.27354 0.246545 1.60991 0.242859 1.96174V15.0857C0.257916 15.4294 0.404423 15.7541 0.652109 15.9929C0.899795 16.2317 1.22973 16.3661 1.57374 16.3686H14.6885C15.0362 16.3681 15.3695 16.2298 15.6154 15.984C15.8612 15.7381 15.9996 15.4048 16 15.0571V1.94233C15.9996 1.59464 15.8612 1.2613 15.6154 1.01544C15.3695 0.769583 15.0362 0.631276 14.6885 0.630859ZM15.4754 15.0571C15.4754 15.2658 15.3925 15.4659 15.2449 15.6135C15.0973 15.7611 14.8972 15.844 14.6885 15.844H1.57374C1.36678 15.8431 1.16798 15.7632 1.01807 15.6205C0.868159 15.4778 0.778495 15.2832 0.767449 15.0765V1.9704C0.769122 1.75627 0.854338 1.55126 1.00495 1.39903C1.15555 1.24681 1.35964 1.15941 1.57374 1.15545H14.6885C14.8972 1.15545 15.0973 1.23835 15.2449 1.38592C15.3925 1.53349 15.4754 1.73364 15.4754 1.94233V15.0571Z" fill="black"/>
<path d="M10.4918 14.7944H1.83605V2.20428H3.67212C3.74168 2.20428 3.8084 2.17664 3.85759 2.12745C3.90678 2.07826 3.93441 2.01155 3.93441 1.94198C3.93441 1.87242 3.90678 1.8057 3.85759 1.75651C3.8084 1.70732 3.74168 1.67969 3.67212 1.67969H1.57376C1.50419 1.67969 1.43748 1.70732 1.38829 1.75651C1.3391 1.8057 1.31146 1.87242 1.31146 1.94198V15.0567C1.31146 15.1263 1.3391 15.193 1.38829 15.2422C1.43748 15.2914 1.50419 15.319 1.57376 15.319H10.4918C10.5614 15.319 10.6281 15.2914 10.6773 15.2422C10.7265 15.193 10.7541 15.1263 10.7541 15.0567C10.7541 14.9872 10.7265 14.9205 10.6773 14.8713C10.6281 14.8221 10.5614 14.7944 10.4918 14.7944ZM14.6885 1.67969H5.77048C5.70091 1.67969 5.6342 1.70732 5.58501 1.75651C5.53582 1.8057 5.50818 1.87242 5.50818 1.94198C5.50818 2.01155 5.53582 2.07826 5.58501 2.12745C5.6342 2.17664 5.70091 2.20428 5.77048 2.20428H14.4262V14.7944H12.5901C12.5206 14.7944 12.4539 14.8221 12.4047 14.8713C12.3555 14.9205 12.3279 14.9872 12.3279 15.0567C12.3279 15.1263 12.3555 15.193 12.4047 15.2422C12.4539 15.2914 12.5206 15.319 12.5901 15.319H14.6885C14.7581 15.319 14.8248 15.2914 14.874 15.2422C14.9232 15.193 14.9508 15.1263 14.9508 15.0567V1.94198C14.9508 1.87242 14.9232 1.8057 14.874 1.75651C14.8248 1.70732 14.7581 1.67969 14.6885 1.67969Z" fill="black"/>
<path d="M8.78683 3.25391H6.03273C5.82404 3.25391 5.62389 3.33681 5.47632 3.48438C5.32875 3.63195 5.24585 3.8321 5.24585 4.04079V12.9588C5.24585 13.1675 5.32875 13.3677 5.47632 13.5152C5.62389 13.6628 5.82404 13.7457 6.03273 13.7457H6.55732C6.76602 13.7457 6.96617 13.6628 7.11374 13.5152C7.26131 13.3677 7.34421 13.1675 7.34421 12.9588V9.81128H8.6987C9.52445 9.81712 10.3233 9.51782 10.9419 8.9708C11.5605 8.42379 11.9553 7.66761 12.0506 6.84735C12.0962 6.39181 12.045 5.93178 11.9004 5.49742C11.7557 5.06306 11.5209 4.66418 11.2112 4.32696C10.9038 3.98954 10.5294 3.71987 10.112 3.53512C9.69462 3.35037 9.2433 3.2546 8.78683 3.25391ZM11.5283 6.79882C11.446 7.48927 11.1117 8.12503 10.5895 8.58415C10.0673 9.04328 9.394 9.29346 8.6987 9.28669H7.08192C7.01235 9.28669 6.94563 9.31433 6.89644 9.36352C6.84725 9.41271 6.81962 9.47942 6.81962 9.54899V12.9588C6.81962 13.0284 6.79199 13.0951 6.7428 13.1443C6.69361 13.1935 6.62689 13.2211 6.55732 13.2211H6.03273C5.96317 13.2211 5.89645 13.1935 5.84726 13.1443C5.79807 13.0951 5.77044 13.0284 5.77044 12.9588V4.04079C5.77044 3.97123 5.79807 3.90451 5.84726 3.85532C5.89645 3.80613 5.96317 3.7785 6.03273 3.7785H8.78683C9.17032 3.7791 9.54948 3.85962 9.90011 4.01493C10.2507 4.17024 10.5652 4.39693 10.8233 4.68053C11.0834 4.96401 11.2807 5.29927 11.4022 5.66432C11.5237 6.02938 11.5667 6.41599 11.5283 6.79882Z" fill="black"/>
<path d="M8.78685 4.82812H7.08194C7.01237 4.82812 6.94566 4.85576 6.89647 4.90495C6.84728 4.95414 6.81964 5.02086 6.81964 5.09042V7.97567C6.81964 8.04523 6.84728 8.11195 6.89647 8.16114C6.94566 8.21033 7.01237 8.23796 7.08194 8.23796H8.78685C9.23903 8.23796 9.67268 8.05834 9.99241 7.7386C10.3121 7.41887 10.4918 6.98522 10.4918 6.53304C10.4918 6.08087 10.3121 5.64722 9.99241 5.32748C9.67268 5.00775 9.23903 4.82813 8.78685 4.82812ZM8.78685 7.71337H7.34423V5.35272H8.78685C9.0999 5.35272 9.40012 5.47707 9.62147 5.69843C9.84283 5.91978 9.96718 6.22 9.96718 6.53304C9.96718 6.84609 9.84283 7.14631 9.62147 7.36766C9.40012 7.58902 9.0999 7.71337 8.78685 7.71337Z" fill="black"/>
</g>
<defs>
<clipPath id="clip0_51_810">
<rect width="16" height="16" fill="white" transform="translate(0 0.5)"/>
</clipPath>
</defs>
</svg>
