<svg width="32" height="33" viewBox="0 0 32 33" fill="none" xmlns="http://www.w3.org/2000/svg">
<g clip-path="url(#clip0_348_621)">
<path d="M13.147 15.9145C15.2646 15.9145 17.0981 15.155 18.5967 13.6564C20.0947 12.1582 20.8545 10.3249 20.8545 8.20705C20.8545 6.0898 20.095 4.25637 18.5964 2.75756C17.0978 1.2595 15.2643 0.5 13.147 0.5C11.029 0.5 9.19573 1.2595 7.69749 2.75781C6.19924 4.25612 5.43943 6.08961 5.43943 8.20705C5.43943 10.3249 6.19918 12.1584 7.69755 13.6567C9.19629 15.1548 11.0298 15.9145 13.1469 15.9145H13.147ZM9.02367 4.08374C10.1733 2.93406 11.522 2.37525 13.147 2.37525C14.7717 2.37525 16.1206 2.93406 17.2705 4.08374C18.4202 5.23362 18.9792 6.58249 18.9792 8.20698C18.9792 9.83198 18.4202 11.1807 17.2705 12.3305C16.1206 13.4805 14.7717 14.0393 13.147 14.0393C11.5224 14.0393 10.1739 13.4802 9.02367 12.3305C7.87373 11.1809 7.31467 9.83204 7.31467 8.20705C7.31467 6.58249 7.87373 5.23362 9.02367 4.08374ZM26.633 25.1064C26.5898 24.4829 26.5024 23.8026 26.3737 23.0845C26.2438 22.3608 26.0766 21.6767 25.8764 21.0515C25.6694 20.4052 25.3884 19.7671 25.0405 19.1555C24.6798 18.5207 24.2561 17.968 23.7805 17.5132C23.2831 17.0373 22.6743 16.6548 21.9701 16.3757C21.2685 16.0982 20.4909 15.9575 19.6591 15.9575C19.3325 15.9575 19.0166 16.0915 18.4065 16.4888C17.9728 16.7712 17.5378 17.0516 17.1015 17.33C16.6823 17.5972 16.1145 17.8474 15.413 18.074C14.7287 18.2954 14.0339 18.4077 13.3478 18.4077C12.6624 18.4077 11.9675 18.2954 11.2827 18.074C10.582 17.8476 10.0139 17.5974 9.59542 17.3303C9.10979 17.02 8.67042 16.7368 8.2893 16.4885C7.67967 16.0913 7.36374 15.9572 7.03711 15.9572C6.20505 15.9572 5.42774 16.0981 4.7263 16.376C4.02268 16.6545 3.41356 17.0371 2.91574 17.5134C2.44018 17.9685 2.01637 18.5209 1.656 19.1555C1.30862 19.767 1.02737 20.405 0.820311 21.0517C0.620311 21.677 0.453124 22.3608 0.323249 23.0845C0.194312 23.8017 0.107187 24.4821 0.0639374 25.1071C0.0214375 25.7182 0 26.3542 0 26.9968C0 28.6672 0.530999 30.0194 1.57812 31.0168C2.61231 32.001 3.98049 32.4999 5.64474 32.4999H21.053C22.7167 32.4999 24.0849 32.0009 25.1193 31.0168C26.1667 30.0202 26.6977 28.6674 26.6977 26.9965C26.6974 26.3518 26.6758 25.7158 26.633 25.1064ZM23.8264 29.6581C23.143 30.3085 22.2358 30.6247 21.0526 30.6247H5.6448C4.46149 30.6247 3.55424 30.3085 2.87112 29.6584C2.201 29.0204 1.87531 28.1496 1.87531 26.9968C1.87531 26.3971 1.89506 25.8051 1.93468 25.2368C1.97318 24.6791 2.05206 24.0666 2.16906 23.4157C2.2845 22.7729 2.43143 22.1696 2.60625 21.6235C2.77399 21.0998 3.00274 20.5813 3.28643 20.0818C3.55718 19.6056 3.86868 19.1972 4.21243 18.8682C4.53399 18.5603 4.9393 18.3083 5.4168 18.1194C5.85843 17.9445 6.3548 17.8488 6.89361 17.8344C6.95924 17.8694 7.07624 17.936 7.26567 18.0595C7.65117 18.3108 8.09548 18.5974 8.58673 18.9111C9.14048 19.2642 9.85379 19.583 10.7061 19.8581C11.5774 20.1398 12.4661 20.2829 13.3482 20.2829C14.2303 20.2829 15.1192 20.1398 15.99 19.8583C16.843 19.5827 17.5562 19.2642 18.1107 18.9106C18.6133 18.5893 19.0452 18.311 19.4307 18.0595C19.6201 17.9362 19.7371 17.8693 19.8028 17.8345C20.3418 17.8488 20.8381 17.9445 21.28 18.1193C21.7573 18.3083 22.1626 18.5605 22.4841 18.8681C22.8279 19.197 23.1394 19.6055 23.4101 20.082C23.6941 20.5813 23.9231 21.1001 24.0906 21.6233C24.2656 22.1701 24.4128 22.7731 24.5281 23.4155C24.6448 24.0676 24.7239 24.6804 24.7625 25.237V25.2375C24.8023 25.8036 24.8223 26.3954 24.8225 26.9968C24.8223 28.1499 24.4966 29.0205 23.8265 29.6581H23.8264Z" fill="#191820"/>
</g>
<defs>
<clipPath id="clip0_348_621">
<rect width="32" height="32" fill="white" transform="translate(0 0.5)"/>
</clipPath>
</defs>
</svg>
