<svg width="24" height="23" viewBox="0 0 24 23" fill="none" xmlns="http://www.w3.org/2000/svg">
<path d="M18.3897 3.44274C18.4001 3.44347 18.4106 3.4442 18.4212 3.4442C18.4392 3.4442 18.4572 3.44274 18.4749 3.44026C18.9475 3.44998 19.3256 3.83537 19.3262 4.3079C19.3262 4.41103 19.3672 4.50993 19.4401 4.58285C19.513 4.65577 19.6119 4.69674 19.7151 4.69674C19.8182 4.69674 19.9171 4.65577 19.99 4.58285C20.0629 4.50993 20.1039 4.41103 20.1039 4.3079C20.1029 3.53499 19.5649 2.86629 18.81 2.69996V2.32634C18.81 2.22321 18.769 2.12431 18.6961 2.05139C18.6232 1.97847 18.5243 1.9375 18.4212 1.9375C18.318 1.9375 18.2191 1.97847 18.1462 2.05139C18.0733 2.12431 18.0323 2.22321 18.0323 2.32634V2.7176C17.2341 2.93103 16.7177 3.70321 16.8254 4.52244C16.933 5.34172 17.6313 5.95424 18.4576 5.95424C18.9374 5.95424 19.3262 6.34322 19.3262 6.82304C19.3262 7.30263 18.9374 7.69161 18.4576 7.69161C17.9778 7.69161 17.589 7.30263 17.589 6.82304C17.589 6.71992 17.548 6.62102 17.4751 6.54809C17.4022 6.47517 17.3033 6.43421 17.2002 6.43421C17.097 6.43421 16.9981 6.47517 16.9252 6.54809C16.8523 6.62102 16.8113 6.71992 16.8113 6.82304C16.8123 7.56806 17.3127 8.21984 18.0323 8.41329V8.83936C18.0323 8.94248 18.0733 9.04139 18.1462 9.11431C18.2191 9.18723 18.318 9.2282 18.4212 9.2282C18.5243 9.2282 18.6232 9.18723 18.6961 9.11431C18.769 9.04139 18.81 8.94248 18.81 8.83936V8.43113C19.6312 8.25134 20.185 7.48164 20.0944 6.64588C20.004 5.81012 19.2983 5.17671 18.4576 5.1769C17.9911 5.1771 17.6078 4.80877 17.5894 4.34265C17.5712 3.87653 17.9245 3.47919 18.3897 3.44293V3.44274Z" fill="#E8505B"/>
<path d="M18.4798 0.0371094C16.0877 0.0371094 14.0463 1.598 13.2815 3.688H3.63075C3.41699 3.688 3.24342 3.88072 3.24192 4.09433L3.15005 17.7347H0.399032C0.184296 17.7347 -6.10352e-05 17.8903 -6.10352e-05 18.1053V19.8363C0.00489664 21.4659 1.28835 22.8046 2.91622 22.8783V22.8868H14.9216V22.8755C15.0188 22.8791 15.0588 22.8868 15.1204 22.8868H15.1287C16.8135 22.8842 18.1781 21.5175 18.1781 19.8327V11.0808C18.2753 11.0862 18.3782 11.089 18.4788 11.089C21.5229 11.089 24 8.60713 24 5.56287C24 2.51886 21.5241 0.037158 18.4798 0.037158V0.0371094ZM3.06417 22.1092H3.06174C1.80385 22.1075 0.783349 21.0904 0.777662 19.8324V18.5125H12.0539V19.8269C12.0543 20.2287 12.1339 20.6265 12.2885 20.9974C12.443 21.3683 12.6692 21.7051 12.9542 21.9883C12.9951 22.0291 13.0458 22.0606 13.0885 22.1092H3.06417ZM17.4005 19.8323C17.4006 21.0881 16.3839 22.1067 15.1284 22.1092H15.121C13.8603 22.1069 12.8379 21.0877 12.8316 19.8272V18.1054C12.8332 18.0562 12.8247 18.0073 12.8067 17.9615C12.7886 17.9158 12.7613 17.8743 12.7265 17.8395C12.6917 17.8048 12.6501 17.7775 12.6043 17.7595C12.5586 17.7415 12.5096 17.7331 12.4604 17.7348H3.92773L4.01697 4.46572H13.0657C12.9968 4.82162 12.9612 5.18316 12.9593 5.54567C12.9585 6.31202 13.1184 7.07003 13.4286 7.77079H9.75591C9.54098 7.77079 9.36707 7.94494 9.36707 8.15963C9.36707 8.37441 9.54098 8.54846 9.75591 8.54846H13.8505C14.2475 9.17271 14.7666 9.71024 15.3767 10.1287C15.9867 10.5472 16.6751 10.838 17.4005 10.9837V19.8323ZM18.4798 10.3115C15.8605 10.3115 13.7369 8.18811 13.7371 5.56856C13.7371 2.94906 15.8605 0.825622 18.48 0.825622C21.0993 0.825622 23.2228 2.94926 23.2228 5.56856C23.2199 8.18675 21.0982 10.3087 18.4798 10.3115Z" fill="#E8505B"/>
<path d="M7.2599 10.3586C6.57361 10.3586 6.01538 10.8992 6.01538 11.5637C6.01538 12.2282 6.57356 12.7687 7.2599 12.7687C7.94625 12.7687 8.50467 12.2282 8.50467 11.5637C8.50467 10.8992 7.94625 10.3586 7.2599 10.3586ZM7.2599 11.9911C7.0023 11.9911 6.79305 11.7993 6.79305 11.5637C6.79305 11.3279 7.00244 11.1363 7.2599 11.1363C7.51736 11.1363 7.72699 11.328 7.72699 11.5637C7.72699 11.7993 7.51736 11.9911 7.2599 11.9911ZM9.36701 11.562C9.36701 11.7767 9.54092 11.9508 9.75585 11.9508H14.9398C15.043 11.9508 15.1419 11.9099 15.2148 11.8369C15.2877 11.764 15.3287 11.6651 15.3287 11.562C15.3287 11.4589 15.2877 11.36 15.2148 11.287C15.1419 11.2141 15.043 11.1731 14.9398 11.1731H9.75585C9.54092 11.1731 9.36701 11.3472 9.36701 11.562ZM7.2599 6.97852C6.57361 6.97852 6.01538 7.51924 6.01538 8.18376C6.01538 8.84829 6.57356 9.38882 7.2599 9.38882C7.94625 9.38882 8.50467 8.84829 8.50467 8.18376C8.50467 7.51924 7.94625 6.97852 7.2599 6.97852ZM7.2599 8.61115C7.0023 8.61115 6.79305 8.4194 6.79305 8.18376C6.79305 7.94813 7.00244 7.75619 7.2599 7.75619C7.51736 7.75619 7.72699 7.94793 7.72699 8.18376C7.72699 8.4194 7.51736 8.61134 7.2599 8.61134V8.61115ZM7.2599 13.7384C6.57361 13.7384 6.01538 14.2789 6.01538 14.9434C6.01538 15.6079 6.57356 16.1485 7.2599 16.1485C7.94625 16.1485 8.50467 15.608 8.50467 14.9434C8.50467 14.2788 7.94625 13.7384 7.2599 13.7384ZM7.2599 15.3708C7.0023 15.3708 6.79305 15.1792 6.79305 14.9434C6.79305 14.7078 7.00244 14.516 7.2599 14.516C7.51736 14.516 7.72699 14.7078 7.72699 14.9434C7.72699 15.179 7.51736 15.3708 7.2599 15.3708ZM14.9398 14.5755H9.75585C9.54092 14.5755 9.36701 14.7496 9.36701 14.9643C9.36701 15.179 9.54092 15.3531 9.75585 15.3531H14.9398C15.043 15.3531 15.1419 15.3122 15.2148 15.2393C15.2877 15.1663 15.3287 15.0674 15.3287 14.9643C15.3287 14.8612 15.2877 14.7623 15.2148 14.6894C15.1419 14.6164 15.043 14.5755 14.9398 14.5755Z" fill="#E8505B"/>
</svg>
