<svg width="25" height="24" viewBox="0 0 25 24" fill="none" xmlns="http://www.w3.org/2000/svg">
<g clip-path="url(#clip0_348_719)">
<path d="M22.5 3.2H22.1V1.2C22.1 0.5384 21.5616 0 20.9 0H20.1C19.4384 0 18.9 0.5384 18.9 1.2V3.2H6.1V1.2C6.1 0.5384 5.5616 0 4.9 0H4.1C3.4384 0 2.9 0.5384 2.9 1.2V3.2H2.5C1.3972 3.2 0.5 4.0972 0.5 5.2V22C0.5 23.1028 1.3972 24 2.5 24H22.5C23.6028 24 24.5 23.1028 24.5 22V5.2C24.5 4.0972 23.6028 3.2 22.5 3.2ZM19.7 3.6V1.2C19.7 0.9792 19.8792 0.8 20.1 0.8H20.9C21.1208 0.8 21.3 0.9792 21.3 1.2V5.2C21.3 5.4208 21.1208 5.6 20.9 5.6H20.1C19.8792 5.6 19.7 5.4208 19.7 5.2V3.6ZM3.7 3.6V1.2C3.7 0.9792 3.8792 0.8 4.1 0.8H4.9C5.1208 0.8 5.3 0.9792 5.3 1.2V5.2C5.3 5.4208 5.1208 5.6 4.9 5.6H4.1C3.8792 5.6 3.7 5.4208 3.7 5.2V3.6ZM23.7 22C23.7 22.6616 23.1616 23.2 22.5 23.2H2.5C1.8384 23.2 1.3 22.6616 1.3 22V10.4H23.7V22ZM23.7 9.6H1.3V5.2C1.3 4.5384 1.8384 4 2.5 4H2.9V5.2C2.9 5.8616 3.4384 6.4 4.1 6.4H4.9C5.5616 6.4 6.1 5.8616 6.1 5.2V4H18.9V5.2C18.9 5.8616 19.4384 6.4 20.1 6.4H20.9C21.5616 6.4 22.1 5.8616 22.1 5.2V4H22.5C23.1616 4 23.7 4.5384 23.7 5.2V9.6Z" fill="#E8505B"/>
<path d="M16.9 5.2002H8.10002C7.87882 5.2002 7.70002 5.379 7.70002 5.6002V8.0002C7.70002 8.2214 7.87882 8.4002 8.10002 8.4002H16.9C17.1212 8.4002 17.3 8.2214 17.3 8.0002V5.6002C17.3 5.379 17.1212 5.2002 16.9 5.2002ZM16.5 7.6002H8.50002V6.0002H16.5V7.6002ZM5.70002 11.6002H3.30002C3.07882 11.6002 2.90002 11.779 2.90002 12.0002V14.0002C2.90002 14.2214 3.07882 14.4002 3.30002 14.4002H5.70002C5.92122 14.4002 6.10002 14.2214 6.10002 14.0002V12.0002C6.10002 11.779 5.92122 11.6002 5.70002 11.6002ZM5.30002 13.6002H3.70002V12.4002H5.30002V13.6002ZM10.9 11.6002H8.50002C8.27882 11.6002 8.10002 11.779 8.10002 12.0002V14.0002C8.10002 14.2214 8.27882 14.4002 8.50002 14.4002H10.9C11.1212 14.4002 11.3 14.2214 11.3 14.0002V12.0002C11.3 11.779 11.1212 11.6002 10.9 11.6002ZM10.5 13.6002H8.90002V12.4002H10.5V13.6002ZM16.5 11.6002H14.1C13.8788 11.6002 13.7 11.779 13.7 12.0002V14.0002C13.7 14.2214 13.8788 14.4002 14.1 14.4002H16.5C16.7212 14.4002 16.9 14.2214 16.9 14.0002V12.0002C16.9 11.779 16.7212 11.6002 16.5 11.6002ZM16.1 13.6002H14.5V12.4002H16.1V13.6002ZM21.7 11.6002H19.3C19.0788 11.6002 18.9 11.779 18.9 12.0002V14.0002C18.9 14.2214 19.0788 14.4002 19.3 14.4002H21.7C21.9212 14.4002 22.1 14.2214 22.1 14.0002V12.0002C22.1 11.779 21.9212 11.6002 21.7 11.6002ZM21.3 13.6002H19.7V12.4002H21.3V13.6002ZM5.70002 15.6002H3.30002C3.07882 15.6002 2.90002 15.779 2.90002 16.0002V18.0002C2.90002 18.2214 3.07882 18.4002 3.30002 18.4002H5.70002C5.92122 18.4002 6.10002 18.2214 6.10002 18.0002V16.0002C6.10002 15.779 5.92122 15.6002 5.70002 15.6002ZM5.30002 17.6002H3.70002V16.4002H5.30002V17.6002ZM10.9 15.6002H8.50002C8.27882 15.6002 8.10002 15.779 8.10002 16.0002V18.0002C8.10002 18.2214 8.27882 18.4002 8.50002 18.4002H10.9C11.1212 18.4002 11.3 18.2214 11.3 18.0002V16.0002C11.3 15.779 11.1212 15.6002 10.9 15.6002ZM10.5 17.6002H8.90002V16.4002H10.5V17.6002ZM16.5 15.6002H14.1C13.8788 15.6002 13.7 15.779 13.7 16.0002V18.0002C13.7 18.2214 13.8788 18.4002 14.1 18.4002H16.5C16.7212 18.4002 16.9 18.2214 16.9 18.0002V16.0002C16.9 15.779 16.7212 15.6002 16.5 15.6002ZM16.1 17.6002H14.5V16.4002H16.1V17.6002ZM21.7 15.6002H19.3C19.0788 15.6002 18.9 15.779 18.9 16.0002V18.0002C18.9 18.2214 19.0788 18.4002 19.3 18.4002H21.7C21.9212 18.4002 22.1 18.2214 22.1 18.0002V16.0002C22.1 15.779 21.9212 15.6002 21.7 15.6002ZM21.3 17.6002H19.7V16.4002H21.3V17.6002ZM5.70002 19.6002H3.30002C3.07882 19.6002 2.90002 19.779 2.90002 20.0002V22.0002C2.90002 22.2214 3.07882 22.4002 3.30002 22.4002H5.70002C5.92122 22.4002 6.10002 22.2214 6.10002 22.0002V20.0002C6.10002 19.779 5.92122 19.6002 5.70002 19.6002ZM5.30002 21.6002H3.70002V20.4002H5.30002V21.6002ZM10.9 19.6002H8.50002C8.27882 19.6002 8.10002 19.779 8.10002 20.0002V22.0002C8.10002 22.2214 8.27882 22.4002 8.50002 22.4002H10.9C11.1212 22.4002 11.3 22.2214 11.3 22.0002V20.0002C11.3 19.779 11.1212 19.6002 10.9 19.6002ZM10.5 21.6002H8.90002V20.4002H10.5V21.6002ZM16.5928 19.3442L14.8732 21.4078L13.9828 20.5174L13.4172 21.083L14.6172 22.283C14.6543 22.3203 14.6983 22.3498 14.7469 22.3699C14.7954 22.39 14.8475 22.4003 14.9 22.4002C14.906 22.4002 14.912 22.4002 14.918 22.3998C14.9736 22.3972 15.028 22.3831 15.0778 22.3585C15.1277 22.3339 15.1719 22.2992 15.2076 22.2566L17.2076 19.8566L16.5928 19.3442ZM21.3928 19.3442L19.6732 21.4078L18.7828 20.5174L18.2172 21.083L19.4172 22.283C19.4543 22.3203 19.4983 22.3498 19.5469 22.3699C19.5954 22.39 19.6475 22.4003 19.7 22.4002C19.706 22.4002 19.712 22.4002 19.718 22.3998C19.7736 22.3972 19.828 22.3831 19.8778 22.3585C19.9277 22.3339 19.9719 22.2992 20.0076 22.2566L22.0076 19.8566L21.3928 19.3442Z" fill="#E8505B"/>
</g>
<defs>
<clipPath id="clip0_348_719">
<rect width="24" height="24" fill="white" transform="translate(0.5)"/>
</clipPath>
</defs>
</svg>
