<svg width="12" height="11" viewBox="0 0 12 11" fill="none" xmlns="http://www.w3.org/2000/svg">
<path fill-rule="evenodd" clip-rule="evenodd" d="M6.35312 8.1475L8.60312 10.3975C8.70859 10.5028 8.85155 10.562 9.00062 10.562C9.14968 10.562 9.29265 10.5028 9.39812 10.3975L11.6481 8.1475C11.7034 8.096 11.7477 8.0339 11.7785 7.9649C11.8092 7.8959 11.8257 7.82142 11.8271 7.74589C11.8284 7.67036 11.8145 7.59534 11.7862 7.5253C11.7579 7.45526 11.7158 7.39164 11.6624 7.33822C11.609 7.28481 11.5454 7.2427 11.4753 7.21441C11.4053 7.18612 11.3303 7.17222 11.2547 7.17356C11.1792 7.17489 11.1047 7.19142 11.0357 7.22216C10.9667 7.25291 10.9046 7.29724 10.8531 7.3525L9.56312 8.6425V1C9.56312 0.850816 9.50385 0.707742 9.39837 0.602252C9.29288 0.496763 9.1498 0.4375 9.00062 0.4375C8.85143 0.4375 8.70836 0.496763 8.60287 0.602252C8.49738 0.707742 8.43812 0.850816 8.43812 1V8.6425L7.14812 7.3525C7.09662 7.29724 7.03452 7.25291 6.96552 7.22216C6.89652 7.19142 6.82204 7.17489 6.74651 7.17356C6.67098 7.17222 6.59596 7.18612 6.52592 7.21441C6.45588 7.2427 6.39225 7.28481 6.33884 7.33822C6.28543 7.39164 6.24332 7.45526 6.21503 7.5253C6.18673 7.59534 6.17284 7.67036 6.17417 7.74589C6.17551 7.82142 6.19204 7.8959 6.22278 7.9649C6.25353 8.0339 6.29785 8.096 6.35312 8.1475ZM3.39812 0.6025C3.29265 0.497162 3.14968 0.437995 3.00062 0.437995C2.85155 0.437995 2.70859 0.497162 2.60312 0.6025L0.353117 2.8525C0.253757 2.95913 0.199665 3.10017 0.202236 3.24589C0.204807 3.39162 0.263841 3.53066 0.366901 3.63372C0.469961 3.73678 0.609 3.79581 0.754725 3.79838C0.900451 3.80095 1.04149 3.74686 1.14812 3.6475L2.43812 2.3575V10C2.43812 10.1492 2.49738 10.2923 2.60287 10.3977C2.70836 10.5032 2.85143 10.5625 3.00062 10.5625C3.1498 10.5625 3.29288 10.5032 3.39836 10.3977C3.50385 10.2923 3.56312 10.1492 3.56312 10V2.3575L4.85312 3.6475C4.90461 3.70276 4.96671 3.74709 5.03571 3.77784C5.10471 3.80858 5.1792 3.82511 5.25473 3.82644C5.33025 3.82778 5.40527 3.81388 5.47532 3.78559C5.54536 3.7573 5.60898 3.71519 5.6624 3.66178C5.71581 3.60836 5.75792 3.54474 5.78621 3.4747C5.8145 3.40466 5.82839 3.32964 5.82706 3.25411C5.82573 3.17858 5.8092 3.1041 5.77845 3.0351C5.74771 2.9661 5.70338 2.904 5.64812 2.8525L3.39812 0.6025Z" fill="#E8505B"/>
</svg>
