<svg width="24" height="24" viewBox="0 0 24 24" fill="none" xmlns="http://www.w3.org/2000/svg">
<g clip-path="url(#clip0_51_3472)">
<path d="M9 21.75H6C5.90054 21.75 5.80516 21.7895 5.73484 21.8598C5.66451 21.9302 5.625 22.0255 5.625 22.125C5.625 22.2245 5.66451 22.3198 5.73484 22.3902C5.80516 22.4605 5.90054 22.5 6 22.5H9C9.09946 22.5 9.19484 22.4605 9.26517 22.3902C9.33549 22.3198 9.375 22.2245 9.375 22.125C9.375 22.0255 9.33549 21.9302 9.26517 21.8598C9.19484 21.7895 9.09946 21.75 9 21.75Z" fill="#E8505B"/>
<path d="M21.9375 7.5H14.25V1.6875C14.2496 1.33952 14.1112 1.00591 13.8652 0.759847C13.6191 0.513789 13.2855 0.375385 12.9375 0.375H2.0625C1.71452 0.375385 1.38091 0.513789 1.13485 0.759847C0.888789 1.00591 0.750385 1.33952 0.75 1.6875V22.3125C0.750385 22.6605 0.888789 22.9941 1.13485 23.2402C1.38091 23.4862 1.71452 23.6246 2.0625 23.625H12.9375C13.2855 23.6246 13.6191 23.4862 13.8652 23.2402C14.1112 22.9941 14.2496 22.6605 14.25 22.3125V16.875H21.9375C22.2855 16.8746 22.6191 16.7362 22.8652 16.4902C23.1112 16.2441 23.2496 15.9105 23.25 15.5625V8.8125C23.2496 8.46452 23.1112 8.13091 22.8652 7.88485C22.6191 7.63879 22.2855 7.50038 21.9375 7.5ZM9.26953 1.125L9.08203 1.875H5.91797L5.73047 1.125H9.26953ZM13.5 22.3125C13.4999 22.4616 13.4406 22.6046 13.3351 22.7101C13.2296 22.8156 13.0866 22.8749 12.9375 22.875H2.0625C1.91335 22.8749 1.77035 22.8156 1.66489 22.7101C1.55943 22.6046 1.50012 22.4616 1.5 22.3125V1.6875C1.50012 1.53835 1.55943 1.39535 1.66489 1.28989C1.77035 1.18443 1.91335 1.12512 2.0625 1.125H4.95703L5.26125 2.34094C5.28153 2.42206 5.32834 2.49409 5.39425 2.54556C5.46016 2.59702 5.54138 2.62499 5.625 2.625H9.375C9.45862 2.62499 9.53984 2.59702 9.60575 2.54556C9.67166 2.49409 9.71847 2.42206 9.73875 2.34094L10.043 1.125H12.9375C13.0866 1.12512 13.2296 1.18443 13.3351 1.28989C13.4406 1.39535 13.4999 1.53835 13.5 1.6875V22.3125ZM14.25 13.125H15.375V14.625H14.25V13.125ZM22.5 15.5625C22.4999 15.7116 22.4406 15.8546 22.3351 15.9601C22.2296 16.0656 22.0866 16.1249 21.9375 16.125H14.25V15.375H15.75C15.8495 15.375 15.9448 15.3355 16.0152 15.2652C16.0855 15.1948 16.125 15.0995 16.125 15V12.75C16.125 12.6505 16.0855 12.5552 16.0152 12.4848C15.9448 12.4145 15.8495 12.375 15.75 12.375H14.25V11.25H22.5V15.5625ZM22.5 10.5H14.25V9.75H22.5V10.5ZM22.5 9H14.25V8.25H21.9375C22.0866 8.25012 22.2296 8.30943 22.3351 8.41489C22.4406 8.52035 22.4999 8.66335 22.5 8.8125V9Z" fill="#E8505B"/>
<path d="M21.375 12.375H18C17.9005 12.375 17.8052 12.4145 17.7348 12.4848C17.6645 12.5552 17.625 12.6505 17.625 12.75C17.625 12.8495 17.6645 12.9448 17.7348 13.0152C17.8052 13.0855 17.9005 13.125 18 13.125H21.375C21.4745 13.125 21.5698 13.0855 21.6402 13.0152C21.7105 12.9448 21.75 12.8495 21.75 12.75C21.75 12.6505 21.7105 12.5552 21.6402 12.4848C21.5698 12.4145 21.4745 12.375 21.375 12.375ZM21.375 13.5H18C17.9005 13.5 17.8052 13.5395 17.7348 13.6098C17.6645 13.6802 17.625 13.7755 17.625 13.875C17.625 13.9745 17.6645 14.0698 17.7348 14.1402C17.8052 14.2105 17.9005 14.25 18 14.25H21.375C21.4745 14.25 21.5698 14.2105 21.6402 14.1402C21.7105 14.0698 21.75 13.9745 21.75 13.875C21.75 13.7755 21.7105 13.6802 21.6402 13.6098C21.5698 13.5395 21.4745 13.5 21.375 13.5ZM21.375 14.625H19.875C19.7755 14.625 19.6802 14.6645 19.6098 14.7348C19.5395 14.8052 19.5 14.9005 19.5 15C19.5 15.0995 19.5395 15.1948 19.6098 15.2652C19.6802 15.3355 19.7755 15.375 19.875 15.375H21.375C21.4745 15.375 21.5698 15.3355 21.6402 15.2652C21.7105 15.1948 21.75 15.0995 21.75 15C21.75 14.9005 21.7105 14.8052 21.6402 14.7348C21.5698 14.6645 21.4745 14.625 21.375 14.625ZM7.5 7.5C6.60999 7.5 5.73996 7.76392 4.99994 8.25839C4.25991 8.75285 3.68314 9.45566 3.34254 10.2779C3.00195 11.1002 2.91283 12.005 3.08647 12.8779C3.2601 13.7508 3.68869 14.5526 4.31802 15.182C4.94736 15.8113 5.74918 16.2399 6.6221 16.4135C7.49501 16.5872 8.39981 16.4981 9.22208 16.1575C10.0443 15.8169 10.7471 15.2401 11.2416 14.5001C11.7361 13.76 12 12.89 12 12C11.9987 10.8069 11.5241 9.66312 10.6805 8.8195C9.83688 7.97588 8.69307 7.50134 7.5 7.5ZM7.5 15.75C6.75832 15.75 6.0333 15.5301 5.41661 15.118C4.79993 14.706 4.31928 14.1203 4.03545 13.4351C3.75163 12.7498 3.67736 11.9958 3.82206 11.2684C3.96675 10.541 4.3239 9.8728 4.84835 9.34835C5.3728 8.8239 6.04098 8.46675 6.76841 8.32205C7.49584 8.17736 8.24984 8.25162 8.93506 8.53545C9.62029 8.81928 10.206 9.29993 10.618 9.91661C11.0301 10.5333 11.25 11.2583 11.25 12C11.2489 12.9942 10.8534 13.9474 10.1504 14.6504C9.44739 15.3534 8.49422 15.7489 7.5 15.75Z" fill="#E8505B"/>
<path d="M9.48483 10.6098L7.0898 13.0049L5.85 12.075C5.77044 12.0153 5.67043 11.9897 5.57197 12.0038C5.47351 12.0178 5.38468 12.0704 5.325 12.15C5.26533 12.2296 5.23971 12.3296 5.25377 12.428C5.26784 12.5265 5.32044 12.6153 5.4 12.675L6.9 13.8C6.97222 13.8542 7.06154 13.8805 7.15159 13.8741C7.24163 13.8677 7.32634 13.829 7.39017 13.7652L10.0152 11.1402C10.0855 11.0699 10.125 10.9745 10.125 10.875C10.125 10.7756 10.0855 10.6802 10.0152 10.6098C9.94485 10.5395 9.84946 10.5 9.75 10.5C9.65054 10.5 9.55516 10.5395 9.48483 10.6098Z" fill="#E8505B"/>
</g>
<defs>
<clipPath id="clip0_51_3472">
<rect width="24" height="24" fill="white"/>
</clipPath>
</defs>
</svg>
