<svg width="24" height="25" viewBox="0 0 24 25" fill="none" xmlns="http://www.w3.org/2000/svg">
<path fill-rule="evenodd" clip-rule="evenodd" d="M12 21.104C16.9706 21.104 21 17.0746 21 12.104C21 7.13344 16.9706 3.104 12 3.104C7.02944 3.104 3 7.13344 3 12.104C3 17.0746 7.02944 21.104 12 21.104ZM9.70711 11.3969C9.31658 11.0064 8.68342 11.0064 8.29289 11.3969C7.90237 11.7874 7.90237 12.4206 8.29289 12.8111L10.2929 14.8111C10.6834 15.2016 11.3166 15.2016 11.7071 14.8111L15.7071 10.8111C16.0976 10.4206 16.0976 9.78742 15.7071 9.3969C15.3166 9.00637 14.6834 9.00637 14.2929 9.3969L11 12.6898L9.70711 11.3969Z" fill="#C1C7D0"/>
<mask id="mask0_28_4232" style="mask-type:luminance" maskUnits="userSpaceOnUse" x="3" y="3" width="18" height="19">
<path fill-rule="evenodd" clip-rule="evenodd" d="M12 21.104C16.9706 21.104 21 17.0746 21 12.104C21 7.13344 16.9706 3.104 12 3.104C7.02944 3.104 3 7.13344 3 12.104C3 17.0746 7.02944 21.104 12 21.104ZM9.70711 11.3969C9.31658 11.0064 8.68342 11.0064 8.29289 11.3969C7.90237 11.7874 7.90237 12.4206 8.29289 12.8111L10.2929 14.8111C10.6834 15.2016 11.3166 15.2016 11.7071 14.8111L15.7071 10.8111C16.0976 10.4206 16.0976 9.78742 15.7071 9.3969C15.3166 9.00637 14.6834 9.00637 14.2929 9.3969L11 12.6898L9.70711 11.3969Z" fill="white"/>
</mask>
<g mask="url(#mask0_28_4232)">
</g>
</svg>
